G04 EAGLE Gerber RS-274X export*
G75*
%MOMM*%
%FSLAX34Y34*%
%LPD*%
%AMOC8*
5,1,8,0,0,1.08239X$1,22.5*%
G01*
%ADD10C,0.558800*%
%ADD11C,1.800000*%
%ADD12C,1.916000*%
%ADD13P,1.853918X8X202.500000*%
%ADD14C,1.712800*%
%ADD15C,4.318000*%
%ADD16P,1.853918X8X112.500000*%
%ADD17P,2.073859X8X22.500000*%
%ADD18P,1.853918X8X22.500000*%
%ADD19P,1.853918X8X292.500000*%
%ADD20C,1.900000*%
%ADD21P,2.056541X8X22.500000*%
%ADD22P,2.597736X8X22.500000*%
%ADD23C,1.200000*%


D10*
X124206Y349594D02*
X124206Y372025D01*
X112990Y372025D01*
X109252Y368287D01*
X109252Y364548D01*
X112990Y360810D01*
X109252Y357071D01*
X109252Y353333D01*
X112990Y349594D01*
X124206Y349594D01*
X124206Y360810D02*
X112990Y360810D01*
X94685Y349594D02*
X87208Y349594D01*
X94685Y349594D02*
X98424Y353333D01*
X98424Y360810D01*
X94685Y364548D01*
X87208Y364548D01*
X83470Y360810D01*
X83470Y357071D01*
X98424Y357071D01*
X68903Y349594D02*
X61426Y349594D01*
X68903Y349594D02*
X72642Y353333D01*
X72642Y360810D01*
X68903Y364548D01*
X61426Y364548D01*
X57688Y360810D01*
X57688Y357071D01*
X72642Y357071D01*
X124206Y330025D02*
X124206Y307594D01*
X124206Y330025D02*
X109252Y330025D01*
X116729Y318810D02*
X124206Y318810D01*
X94685Y307594D02*
X87208Y307594D01*
X83470Y311333D01*
X83470Y318810D01*
X87208Y322548D01*
X94685Y322548D01*
X98424Y318810D01*
X98424Y311333D01*
X94685Y307594D01*
X68903Y322548D02*
X57688Y322548D01*
X68903Y322548D02*
X72642Y318810D01*
X72642Y311333D01*
X68903Y307594D01*
X57688Y307594D01*
X46860Y311333D02*
X46860Y322548D01*
X46860Y311333D02*
X43121Y307594D01*
X31906Y307594D01*
X31906Y322548D01*
X21078Y307594D02*
X9862Y307594D01*
X6124Y311333D01*
X9862Y315071D01*
X17339Y315071D01*
X21078Y318810D01*
X17339Y322548D01*
X6124Y322548D01*
D11*
X698500Y254000D03*
X673100Y254000D03*
X647700Y254000D03*
X622300Y254000D03*
X596900Y254000D03*
X571500Y254000D03*
X546100Y254000D03*
X520700Y254000D03*
X520700Y127000D03*
X546100Y127000D03*
X571500Y127000D03*
X596900Y127000D03*
X622300Y127000D03*
X647700Y127000D03*
X673100Y127000D03*
X698500Y127000D03*
D12*
X673100Y60380D02*
X673100Y41220D01*
X647700Y41220D02*
X647700Y60380D01*
X622300Y60380D02*
X622300Y41220D01*
X596900Y41220D02*
X596900Y60380D01*
X63500Y60380D02*
X63500Y41220D01*
X38100Y41220D02*
X38100Y60380D01*
D13*
X756920Y304800D03*
D14*
X792480Y304800D03*
D15*
X749300Y86200D03*
X749300Y26200D03*
X796300Y56200D03*
D16*
X571500Y25400D03*
X571500Y50800D03*
D17*
X444500Y63500D03*
X457200Y406400D03*
X571500Y76200D03*
D16*
X152400Y38100D03*
X152400Y114300D03*
X127000Y165100D03*
X127000Y241300D03*
D18*
X469900Y101600D03*
X546100Y101600D03*
D17*
X101600Y114300D03*
D19*
X127000Y88900D03*
X127000Y38100D03*
D17*
X482600Y152400D03*
X457200Y368300D03*
D13*
X152400Y139700D03*
X127000Y139700D03*
D11*
X698500Y330200D03*
X698500Y304800D03*
X698500Y431800D03*
X495300Y330200D03*
X495300Y304800D03*
X495300Y406400D03*
X495300Y431800D03*
X698500Y406400D03*
X495300Y355600D03*
X520700Y304800D03*
X520700Y330200D03*
X520700Y355600D03*
X546100Y304800D03*
X546100Y330200D03*
X546100Y355600D03*
X520700Y406400D03*
X520700Y431800D03*
X546100Y431800D03*
X546100Y406400D03*
D20*
X190500Y107950D03*
X190500Y133350D03*
X190500Y158750D03*
X190500Y184150D03*
X190500Y209550D03*
X190500Y234950D03*
X190500Y260350D03*
X419100Y107950D03*
X419100Y133350D03*
X419100Y158750D03*
X419100Y184150D03*
X419100Y209550D03*
X419100Y234950D03*
X419100Y260350D03*
X190500Y82550D03*
X419100Y82550D03*
D21*
X485500Y38100D03*
X530500Y38100D03*
D22*
X543000Y63100D03*
X473000Y63100D03*
D23*
X648750Y116250D02*
X648750Y126250D01*
X648750Y116250D02*
X672500Y92500D01*
X672500Y51250D01*
X648750Y126250D02*
X647700Y127000D01*
X672500Y51250D02*
X673100Y50800D01*
X622500Y113750D02*
X622500Y126250D01*
X622500Y113750D02*
X647500Y88750D01*
X647500Y51250D01*
X622500Y126250D02*
X622300Y127000D01*
X647500Y51250D02*
X647700Y50800D01*
X597500Y110000D02*
X597500Y126250D01*
X597500Y110000D02*
X621250Y86250D01*
X621250Y51250D01*
X597500Y126250D02*
X596900Y127000D01*
X621250Y51250D02*
X622300Y50800D01*
X572500Y106250D02*
X572500Y126250D01*
X572500Y106250D02*
X596250Y82500D01*
X596250Y51250D01*
X572500Y126250D02*
X571500Y127000D01*
X596250Y51250D02*
X596900Y50800D01*
X698750Y126250D02*
X708750Y126250D01*
X748750Y86250D01*
X698750Y126250D02*
X698500Y127000D01*
X748750Y86250D02*
X749300Y86200D01*
X791250Y305000D02*
X791250Y313750D01*
X698750Y406250D01*
X791250Y305000D02*
X792480Y304800D01*
X698750Y406250D02*
X698500Y406400D01*
X796250Y132500D02*
X753750Y90000D01*
X796250Y132500D02*
X796250Y296250D01*
X793750Y298750D01*
X753750Y90000D02*
X749300Y86200D01*
X793750Y298750D02*
X792480Y304800D01*
X545000Y253750D02*
X545000Y247500D01*
X482500Y185000D01*
X420000Y185000D01*
X545000Y253750D02*
X546100Y254000D01*
X420000Y185000D02*
X419100Y184150D01*
X542500Y26250D02*
X571250Y26250D01*
X542500Y26250D02*
X531250Y37500D01*
X571250Y26250D02*
X571500Y25400D01*
X531250Y37500D02*
X530500Y38100D01*
X418750Y158750D02*
X413750Y158750D01*
X377500Y122500D01*
X377500Y63750D01*
X425000Y16250D01*
X506250Y16250D01*
X525000Y35000D01*
X419100Y158750D02*
X418750Y158750D01*
X525000Y35000D02*
X530500Y38100D01*
X520000Y253750D02*
X468750Y253750D01*
X425000Y210000D01*
X420000Y210000D01*
X520000Y253750D02*
X520700Y254000D01*
X420000Y210000D02*
X419100Y209550D01*
X572500Y255000D02*
X596250Y255000D01*
X572500Y255000D02*
X571500Y254000D01*
X596250Y255000D02*
X596900Y254000D01*
X602500Y255000D02*
X621250Y255000D01*
X622300Y254000D01*
X602500Y255000D02*
X596900Y254000D01*
X627500Y255000D02*
X647500Y255000D01*
X647700Y254000D01*
X627500Y255000D02*
X622300Y254000D01*
X653750Y253750D02*
X672500Y253750D01*
X673100Y254000D01*
X653750Y253750D02*
X647700Y254000D01*
X546250Y126250D02*
X546250Y102500D01*
X546100Y101600D01*
X546250Y126250D02*
X546100Y127000D01*
X572500Y75000D02*
X572500Y51250D01*
X571500Y50800D01*
X572500Y75000D02*
X571500Y76200D01*
X568750Y81250D02*
X551250Y98750D01*
X546100Y101600D01*
X568750Y81250D02*
X571500Y76200D01*
X568750Y155000D02*
X568750Y248750D01*
X568750Y155000D02*
X546250Y132500D01*
X568750Y248750D02*
X571500Y254000D01*
X546250Y132500D02*
X546100Y127000D01*
X698750Y305000D02*
X720000Y305000D01*
X756250Y305000D01*
X756920Y304800D01*
X698750Y305000D02*
X698500Y304800D01*
X698750Y310000D02*
X698750Y330000D01*
X698500Y330200D01*
X698750Y310000D02*
X698500Y304800D01*
X673750Y126250D02*
X673750Y120000D01*
X715000Y78750D01*
X715000Y60000D01*
X748750Y26250D01*
X673750Y126250D02*
X673100Y127000D01*
X748750Y26250D02*
X749300Y26200D01*
X720000Y190000D02*
X720000Y300000D01*
X720000Y190000D02*
X676250Y146250D01*
X676250Y132500D01*
X720000Y300000D02*
X720000Y305000D01*
X676250Y132500D02*
X673100Y127000D01*
X778750Y55000D02*
X796250Y55000D01*
X778750Y55000D02*
X753750Y30000D01*
X796250Y55000D02*
X796300Y56200D01*
X753750Y30000D02*
X749300Y26200D01*
X468750Y102500D02*
X455000Y102500D01*
X425000Y132500D01*
X420000Y132500D01*
X468750Y102500D02*
X469900Y101600D01*
X420000Y132500D02*
X419100Y133350D01*
X127500Y140000D02*
X127500Y165000D01*
X127500Y140000D02*
X127000Y139700D01*
X127500Y165000D02*
X127000Y165100D01*
X102500Y113750D02*
X126250Y90000D01*
X127000Y88900D01*
X102500Y113750D02*
X101600Y114300D01*
X135000Y83750D02*
X190000Y83750D01*
X135000Y83750D02*
X132500Y86250D01*
X190000Y83750D02*
X190500Y82550D01*
X132500Y86250D02*
X127000Y88900D01*
X105000Y118750D02*
X122500Y136250D01*
X127000Y139700D01*
X105000Y118750D02*
X101600Y114300D01*
X152500Y138750D02*
X180000Y138750D01*
X185000Y133750D01*
X190000Y133750D01*
X152500Y138750D02*
X152400Y139700D01*
X190000Y133750D02*
X190500Y133350D01*
X38750Y106250D02*
X38750Y51250D01*
X38750Y106250D02*
X118750Y186250D01*
X136250Y186250D01*
X150000Y172500D01*
X150000Y145000D01*
X38750Y51250D02*
X38100Y50800D01*
X152400Y139700D02*
X150000Y145000D01*
X167500Y242500D02*
X127500Y242500D01*
X167500Y242500D02*
X185000Y260000D01*
X190000Y260000D01*
X127500Y242500D02*
X127000Y241300D01*
X190000Y260000D02*
X190500Y260350D01*
X178750Y113750D02*
X152500Y113750D01*
X178750Y113750D02*
X183750Y108750D01*
X190000Y108750D01*
X152500Y113750D02*
X152400Y114300D01*
X190000Y108750D02*
X190500Y107950D01*
X697500Y255000D02*
X697500Y260000D01*
X675000Y282500D01*
X295000Y282500D01*
X197500Y185000D01*
X191250Y185000D01*
X697500Y255000D02*
X698500Y254000D01*
X191250Y185000D02*
X190500Y184150D01*
X507500Y127500D02*
X520000Y127500D01*
X507500Y127500D02*
X483750Y151250D01*
X520000Y127500D02*
X520700Y127000D01*
X483750Y151250D02*
X482600Y152400D01*
X418750Y107500D02*
X412500Y107500D01*
X397500Y92500D01*
X397500Y72500D01*
X431250Y38750D01*
X485000Y38750D01*
X418750Y107500D02*
X419100Y107950D01*
X485000Y38750D02*
X485500Y38100D01*
X505000Y58750D02*
X505000Y122500D01*
X505000Y58750D02*
X488750Y42500D01*
X505000Y122500D02*
X507500Y127500D01*
X488750Y42500D02*
X485500Y38100D01*
X425000Y82500D02*
X420000Y82500D01*
X425000Y82500D02*
X443750Y63750D01*
X420000Y82500D02*
X419100Y82550D01*
X443750Y63750D02*
X444500Y63500D01*
X151250Y38750D02*
X127500Y38750D01*
X127000Y38100D01*
X151250Y38750D02*
X152400Y38100D01*
X111250Y50000D02*
X63750Y50000D01*
X111250Y50000D02*
X121250Y40000D01*
X63750Y50000D02*
X63500Y50800D01*
X121250Y40000D02*
X127000Y38100D01*
X496250Y305000D02*
X520000Y305000D01*
X496250Y305000D02*
X495300Y304800D01*
X520000Y305000D02*
X520700Y304800D01*
X496250Y310000D02*
X496250Y330000D01*
X495300Y330200D01*
X496250Y310000D02*
X495300Y304800D01*
X502500Y331250D02*
X520000Y331250D01*
X520700Y330200D01*
X502500Y331250D02*
X495300Y330200D01*
X496250Y336250D02*
X496250Y355000D01*
X495300Y355600D01*
X496250Y336250D02*
X495300Y330200D01*
X526250Y305000D02*
X545000Y305000D01*
X546100Y304800D01*
X526250Y305000D02*
X520700Y304800D01*
X483750Y367500D02*
X457500Y367500D01*
X483750Y367500D02*
X491250Y360000D01*
X457500Y367500D02*
X457200Y368300D01*
X491250Y360000D02*
X495300Y355600D01*
X63750Y43750D02*
X63750Y36250D01*
X46250Y18750D01*
X30000Y18750D01*
X16250Y32500D01*
X16250Y115000D01*
X106250Y205000D01*
X106250Y250000D01*
X137500Y281250D01*
X182500Y281250D01*
X265000Y363750D01*
X452500Y363750D01*
X63500Y50800D02*
X63750Y43750D01*
X452500Y363750D02*
X457200Y368300D01*
X526250Y330000D02*
X545000Y330000D01*
X546100Y330200D01*
X526250Y330000D02*
X520700Y330200D01*
X520000Y356250D02*
X501250Y356250D01*
X520000Y356250D02*
X520700Y355600D01*
X501250Y356250D02*
X495300Y355600D01*
X526250Y356250D02*
X545000Y356250D01*
X546100Y355600D01*
X526250Y356250D02*
X520700Y355600D01*
X520000Y406250D02*
X496250Y406250D01*
X495300Y406400D01*
X520000Y406250D02*
X520700Y406400D01*
X490000Y406250D02*
X457500Y406250D01*
X457200Y406400D01*
X490000Y406250D02*
X495300Y406400D01*
X526250Y406250D02*
X545000Y406250D01*
X546100Y406400D01*
X526250Y406250D02*
X520700Y406400D01*
M02*
