M48
;GenerationSoftware,Autodesk,EAGLE,9.1.0*%
;CreationDate,2019-05-26T14:19:04Z*%
FMAT,2
ICI,OFF
METRIC,TZ,000.000
T8C0.813
T7C0.900
T6C1.000
T5C1.016
T4C1.500
T3C2.997
T2C3.200
%
G90
M71
T2
X3810Y20320
X77470Y40640
X74930Y15240
X3810Y40640
T3
X79630Y5620
X74930Y2620
X74930Y8620
T4
X47300Y6310
X54300Y6310
T5
X45720Y36830
X48260Y15240
X10160Y11430
X57150Y7620
X45720Y40640
X44450Y6350
X3810Y5080
X67310Y5080
X64770Y5080
X62230Y5080
X59690Y5080
X6350Y5080
T6
X19050Y26035
X41910Y10795
X19050Y23495
X19050Y20955
X19050Y18415
X19050Y15875
X19050Y13335
X19050Y10795
X41910Y13335
X53050Y3810
X48550Y3810
X41910Y8255
X19050Y8255
X41910Y26035
X41910Y23495
X41910Y20955
X41910Y18415
X41910Y15875
T7
X49530Y35560
X52070Y30480
X52070Y33020
X49530Y43180
X52070Y35560
X54610Y30480
X69850Y40640
X54610Y25400
X54610Y33020
X54610Y35560
X52070Y40640
X52070Y43180
X54610Y43180
X54610Y40640
X67310Y25400
X69850Y25400
X49530Y30480
X57150Y25400
X52070Y25400
X52070Y12700
X54610Y12700
X57150Y12700
X59690Y12700
X62230Y12700
X64770Y12700
X67310Y12700
X69850Y12700
X59690Y25400
X62230Y25400
X64770Y25400
X49530Y40640
X49530Y33020
X69850Y43180
X69850Y30480
X69850Y33020
T8
X54610Y10160
X12700Y13970
X15240Y13970
X12700Y3810
X12700Y8890
X15240Y11430
X75692Y30480
X79248Y30480
X46990Y10160
X12700Y24130
X12700Y16510
X57150Y2540
X57150Y5080
X15240Y3810
M30