G04 EAGLE Gerber RS-274X export*
G75*
%MOMM*%
%FSLAX34Y34*%
%LPD*%
%AMOC8*
5,1,8,0,0,1.08239X$1,22.5*%
G01*
%ADD10C,0.558800*%
%ADD11C,1.800000*%
%ADD12C,1.916000*%
%ADD13P,1.853918X8X22.500000*%
%ADD14C,1.712800*%
%ADD15C,4.318000*%
%ADD16P,1.853918X8X112.500000*%
%ADD17P,2.073859X8X22.500000*%
%ADD18P,1.853918X8X292.500000*%
%ADD19P,1.853918X8X202.500000*%
%ADD20C,1.900000*%
%ADD21P,2.056541X8X22.500000*%
%ADD22P,2.597736X8X22.500000*%
%ADD23C,1.200000*%


D10*
X124206Y349594D02*
X124206Y372025D01*
X112990Y372025D01*
X109252Y368287D01*
X109252Y364548D01*
X112990Y360810D01*
X109252Y357071D01*
X109252Y353333D01*
X112990Y349594D01*
X124206Y349594D01*
X124206Y360810D02*
X112990Y360810D01*
X94685Y349594D02*
X87208Y349594D01*
X94685Y349594D02*
X98424Y353333D01*
X98424Y360810D01*
X94685Y364548D01*
X87208Y364548D01*
X83470Y360810D01*
X83470Y357071D01*
X98424Y357071D01*
X68903Y349594D02*
X61426Y349594D01*
X68903Y349594D02*
X72642Y353333D01*
X72642Y360810D01*
X68903Y364548D01*
X61426Y364548D01*
X57688Y360810D01*
X57688Y357071D01*
X72642Y357071D01*
X124206Y330025D02*
X124206Y307594D01*
X124206Y330025D02*
X109252Y330025D01*
X116729Y318810D02*
X124206Y318810D01*
X94685Y307594D02*
X87208Y307594D01*
X83470Y311333D01*
X83470Y318810D01*
X87208Y322548D01*
X94685Y322548D01*
X98424Y318810D01*
X98424Y311333D01*
X94685Y307594D01*
X68903Y322548D02*
X57688Y322548D01*
X68903Y322548D02*
X72642Y318810D01*
X72642Y311333D01*
X68903Y307594D01*
X57688Y307594D01*
X46860Y311333D02*
X46860Y322548D01*
X46860Y311333D02*
X43121Y307594D01*
X31906Y307594D01*
X31906Y322548D01*
X21078Y307594D02*
X9862Y307594D01*
X6124Y311333D01*
X9862Y315071D01*
X17339Y315071D01*
X21078Y318810D01*
X17339Y322548D01*
X6124Y322548D01*
D11*
X698500Y266700D03*
X673100Y266700D03*
X647700Y266700D03*
X622300Y266700D03*
X596900Y266700D03*
X571500Y266700D03*
X546100Y266700D03*
X520700Y266700D03*
X520700Y139700D03*
X546100Y139700D03*
X571500Y139700D03*
X596900Y139700D03*
X622300Y139700D03*
X647700Y139700D03*
X673100Y139700D03*
X698500Y139700D03*
D12*
X673100Y60380D02*
X673100Y41220D01*
X647700Y41220D02*
X647700Y60380D01*
X622300Y60380D02*
X622300Y41220D01*
X596900Y41220D02*
X596900Y60380D01*
X63500Y60380D02*
X63500Y41220D01*
X38100Y41220D02*
X38100Y60380D01*
D13*
X792480Y317500D03*
D14*
X756920Y317500D03*
D15*
X749300Y86200D03*
X749300Y26200D03*
X796300Y56200D03*
D16*
X571500Y25400D03*
X571500Y50800D03*
D17*
X444500Y63500D03*
X457200Y330200D03*
X571500Y88900D03*
D16*
X152400Y38100D03*
X152400Y114300D03*
X127000Y165100D03*
X127000Y241300D03*
D13*
X469900Y114300D03*
X546100Y114300D03*
D17*
X101600Y114300D03*
D18*
X127000Y88900D03*
X127000Y38100D03*
D17*
X482600Y152400D03*
X457200Y406400D03*
D19*
X152400Y139700D03*
X127000Y139700D03*
D11*
X723900Y431800D03*
X723900Y406400D03*
X723900Y330200D03*
X495300Y431800D03*
X495300Y406400D03*
X495300Y304800D03*
X495300Y330200D03*
X723900Y304800D03*
D20*
X190500Y107950D03*
X190500Y133350D03*
X190500Y158750D03*
X190500Y184150D03*
X190500Y209550D03*
X190500Y234950D03*
X190500Y260350D03*
X419100Y107950D03*
X419100Y133350D03*
X419100Y158750D03*
X419100Y184150D03*
X419100Y209550D03*
X419100Y234950D03*
X419100Y260350D03*
X190500Y82550D03*
X419100Y82550D03*
D21*
X485500Y38100D03*
X530500Y38100D03*
D22*
X543000Y63100D03*
X473000Y63100D03*
D23*
X648750Y130000D02*
X648750Y138750D01*
X648750Y130000D02*
X660000Y118750D01*
X660000Y82500D01*
X672500Y70000D01*
X672500Y51250D01*
X648750Y138750D02*
X647700Y139700D01*
X672500Y51250D02*
X673100Y50800D01*
X622500Y127500D02*
X622500Y138750D01*
X622500Y127500D02*
X640000Y110000D01*
X640000Y73750D01*
X647500Y66250D01*
X647500Y51250D01*
X622500Y138750D02*
X622300Y139700D01*
X647500Y51250D02*
X647700Y50800D01*
X597500Y123750D02*
X597500Y138750D01*
X597500Y123750D02*
X620000Y101250D01*
X620000Y52500D01*
X621250Y51250D01*
X597500Y138750D02*
X596900Y139700D01*
X621250Y51250D02*
X622300Y50800D01*
X572500Y120000D02*
X572500Y138750D01*
X572500Y120000D02*
X596250Y96250D01*
X596250Y51250D01*
X572500Y138750D02*
X571500Y139700D01*
X596250Y51250D02*
X596900Y50800D01*
X737500Y317500D02*
X756920Y317500D01*
X737500Y317500D02*
X725000Y330000D01*
X723900Y330200D01*
X737500Y317500D02*
X725000Y305000D01*
X723900Y304800D01*
X698750Y138750D02*
X698750Y136250D01*
X748750Y86250D01*
X698750Y138750D02*
X698500Y139700D01*
X748750Y86250D02*
X749300Y86200D01*
X722500Y192500D02*
X722500Y298750D01*
X722500Y192500D02*
X701250Y171250D01*
X701250Y145000D01*
X722500Y298750D02*
X723900Y304800D01*
X701250Y145000D02*
X698500Y139700D01*
X545000Y261250D02*
X545000Y266250D01*
X545000Y261250D02*
X468750Y185000D01*
X420000Y185000D01*
X545000Y266250D02*
X546100Y266700D01*
X420000Y185000D02*
X419100Y184150D01*
X542500Y26250D02*
X571250Y26250D01*
X542500Y26250D02*
X531250Y37500D01*
X571250Y26250D02*
X571500Y25400D01*
X531250Y37500D02*
X530500Y38100D01*
X419100Y158750D02*
X413750Y158750D01*
X397500Y142500D01*
X397500Y72500D01*
X453750Y16250D01*
X506250Y16250D01*
X525000Y35000D01*
X530500Y38100D01*
X520000Y266250D02*
X516250Y266250D01*
X460000Y210000D01*
X420000Y210000D01*
X520000Y266250D02*
X520700Y266700D01*
X420000Y210000D02*
X419100Y209550D01*
X572500Y267500D02*
X596250Y267500D01*
X572500Y267500D02*
X571500Y266700D01*
X596250Y267500D02*
X596900Y266700D01*
X602500Y267500D02*
X621250Y267500D01*
X622300Y266700D01*
X602500Y267500D02*
X596900Y266700D01*
X627500Y267500D02*
X647500Y267500D01*
X647700Y266700D01*
X627500Y267500D02*
X622300Y266700D01*
X653750Y266250D02*
X672500Y266250D01*
X673100Y266700D01*
X653750Y266250D02*
X647700Y266700D01*
X546250Y138750D02*
X546250Y115000D01*
X546100Y114300D01*
X546250Y138750D02*
X546100Y139700D01*
X572500Y88750D02*
X572500Y51250D01*
X571500Y50800D01*
X572500Y88750D02*
X571500Y88900D01*
X568750Y93750D02*
X551250Y111250D01*
X546100Y114300D01*
X568750Y93750D02*
X571500Y88900D01*
X568750Y167500D02*
X568750Y261250D01*
X568750Y167500D02*
X546250Y145000D01*
X568750Y261250D02*
X571500Y266700D01*
X546250Y145000D02*
X546100Y139700D01*
X791250Y317500D02*
X791250Y323750D01*
X725000Y390000D01*
X725000Y406250D01*
X791250Y317500D02*
X792480Y317500D01*
X725000Y406250D02*
X723900Y406400D01*
X673750Y138750D02*
X673750Y133750D01*
X680000Y127500D01*
X680000Y95000D01*
X748750Y26250D01*
X673750Y138750D02*
X673100Y139700D01*
X748750Y26250D02*
X749300Y26200D01*
X778750Y55000D02*
X796250Y55000D01*
X778750Y55000D02*
X753750Y30000D01*
X796250Y55000D02*
X796300Y56200D01*
X753750Y30000D02*
X749300Y26200D01*
X795000Y162500D02*
X795000Y312500D01*
X795000Y162500D02*
X796250Y161250D01*
X796250Y61250D01*
X795000Y312500D02*
X792480Y317500D01*
X796250Y61250D02*
X796300Y56200D01*
X468750Y115000D02*
X460000Y115000D01*
X442500Y132500D01*
X420000Y132500D01*
X468750Y115000D02*
X469900Y114300D01*
X420000Y132500D02*
X419100Y133350D01*
X127500Y140000D02*
X127500Y165000D01*
X127500Y140000D02*
X127000Y139700D01*
X127500Y165000D02*
X127000Y165100D01*
X102500Y113750D02*
X126250Y90000D01*
X127000Y88900D01*
X102500Y113750D02*
X101600Y114300D01*
X135000Y83750D02*
X190000Y83750D01*
X135000Y83750D02*
X132500Y86250D01*
X190000Y83750D02*
X190500Y82550D01*
X132500Y86250D02*
X127000Y88900D01*
X105000Y118750D02*
X122500Y136250D01*
X127000Y139700D01*
X105000Y118750D02*
X101600Y114300D01*
X496250Y305000D02*
X496250Y330000D01*
X496250Y305000D02*
X495300Y304800D01*
X496250Y330000D02*
X495300Y330200D01*
X490000Y330000D02*
X457500Y330000D01*
X457200Y330200D01*
X490000Y330000D02*
X495300Y330200D01*
X180000Y138750D02*
X152500Y138750D01*
X180000Y138750D02*
X185000Y133750D01*
X190000Y133750D01*
X152500Y138750D02*
X152400Y139700D01*
X190000Y133750D02*
X190500Y133350D01*
X38750Y106250D02*
X38750Y51250D01*
X38750Y106250D02*
X118750Y186250D01*
X136250Y186250D01*
X150000Y172500D01*
X150000Y145000D01*
X38750Y51250D02*
X38100Y50800D01*
X152400Y139700D02*
X150000Y145000D01*
X167500Y242500D02*
X127500Y242500D01*
X167500Y242500D02*
X185000Y260000D01*
X190000Y260000D01*
X127500Y242500D02*
X127000Y241300D01*
X190000Y260000D02*
X190500Y260350D01*
X178750Y113750D02*
X152500Y113750D01*
X178750Y113750D02*
X183750Y108750D01*
X190000Y108750D01*
X152500Y113750D02*
X152400Y114300D01*
X190000Y108750D02*
X190500Y107950D01*
X697500Y267500D02*
X697500Y272500D01*
X681250Y288750D01*
X510000Y288750D01*
X503750Y282500D01*
X410000Y282500D01*
X232500Y105000D01*
X232500Y65000D01*
X185000Y17500D01*
X31250Y17500D01*
X16250Y32500D01*
X16250Y112500D01*
X110000Y206250D01*
X162500Y206250D01*
X183750Y185000D01*
X190000Y185000D01*
X697500Y267500D02*
X698500Y266700D01*
X190500Y184150D02*
X190000Y185000D01*
X495000Y140000D02*
X497500Y140000D01*
X520000Y140000D01*
X495000Y140000D02*
X482600Y152400D01*
X520000Y140000D02*
X520700Y139700D01*
X486250Y41250D02*
X486250Y38750D01*
X486250Y41250D02*
X497500Y52500D01*
X497500Y92500D02*
X497500Y140000D01*
X497500Y92500D02*
X497500Y52500D01*
X486250Y38750D02*
X485500Y38100D01*
X438750Y107500D02*
X420000Y107500D01*
X438750Y107500D02*
X453750Y92500D01*
X497500Y92500D01*
X420000Y107500D02*
X419100Y107950D01*
X420000Y82500D02*
X425000Y82500D01*
X443750Y63750D01*
X420000Y82500D02*
X419100Y82550D01*
X443750Y63750D02*
X444500Y63500D01*
X457500Y406250D02*
X495000Y406250D01*
X495300Y406400D01*
X457500Y406250D02*
X457200Y406400D01*
X151250Y38750D02*
X127500Y38750D01*
X127000Y38100D01*
X151250Y38750D02*
X152400Y38100D01*
X111250Y50000D02*
X63750Y50000D01*
X111250Y50000D02*
X121250Y40000D01*
X63750Y50000D02*
X63500Y50800D01*
X121250Y40000D02*
X127000Y38100D01*
X457500Y361250D02*
X457500Y400000D01*
X457500Y361250D02*
X212500Y116250D01*
X212500Y73750D01*
X180000Y41250D01*
X157500Y41250D01*
X457500Y400000D02*
X457200Y406400D01*
X157500Y41250D02*
X152400Y38100D01*
M02*
