M48
;GenerationSoftware,Autodesk,EAGLE,9.1.0*%
;CreationDate,2019-04-13T20:31:24Z*%
FMAT,2
ICI,OFF
METRIC,TZ,000.000
T8C0.813
T7C0.900
T6C1.000
T5C1.016
T4C1.500
T3C2.997
T2C3.200
%
G90
M71
T2
X3810Y20320
X77470Y40640
X74930Y15240
X3810Y40640
T3
X79630Y5620
X74930Y2620
X74930Y8620
T4
X47300Y6310
X54300Y6310
T5
X10160Y11430
X48260Y15240
X45720Y40640
X57150Y8890
X45720Y33020
X44450Y6350
X3810Y5080
X67310Y5080
X64770Y5080
X62230Y5080
X59690Y5080
X6350Y5080
T6
X19050Y26035
X41910Y15875
X19050Y23495
X19050Y20955
X19050Y18415
X19050Y15875
X19050Y13335
X19050Y10795
X41910Y10795
X41910Y13335
X41910Y18415
X41910Y20955
X41910Y23495
X41910Y26035
X19050Y8255
X41910Y8255
X48550Y3810
X53050Y3810
T7
X72390Y40640
X72390Y33020
X49530Y43180
X54610Y26670
X49530Y40640
X49530Y30480
X49530Y33020
X72390Y30480
X67310Y26670
X69850Y26670
X62230Y26670
X57150Y26670
X52070Y26670
X52070Y13970
X54610Y13970
X57150Y13970
X59690Y13970
X62230Y13970
X64770Y13970
X67310Y13970
X69850Y13970
X59690Y26670
X72390Y43180
X64770Y26670
T8
X57150Y2540
X57150Y5080
X75692Y31750
X79248Y31750
X15240Y3810
X15240Y11430
X12700Y16510
X12700Y24130
X46990Y11430
X54610Y11430
X12700Y8890
X12700Y3810
X15240Y13970
X12700Y13970
M30