M48
;GenerationSoftware,Autodesk,EAGLE,9.1.0*%
;CreationDate,2018-11-28T10:00:18Z*%
FMAT,2
ICI,OFF
METRIC,TZ,000.000
T7C0.813
T6C0.900
T5C1.000
T4C1.016
T3C2.997
T2C3.200
%
G90
M71
T2
X3810Y20320
X77470Y40640
X74930Y15240
X3810Y40640
T3
X77090Y5620
X72390Y8620
X72390Y2620
T4
X10160Y11430
X44450Y33020
X44450Y7620
X54610Y7620
X48260Y15240
X44450Y40640
X3810Y5080
X6350Y5080
X46990Y5080
X49530Y5080
X57150Y5080
X59690Y5080
X62230Y5080
X64770Y5080
T5
X19050Y18415
X19050Y10795
X19050Y13335
X19050Y15875
X19050Y20955
X19050Y23495
X19050Y26035
X41910Y10795
X41910Y15875
X41910Y8255
X19050Y8255
X41910Y26035
X41910Y23495
X41910Y20955
X41910Y18415
X41910Y13335
T6
X67310Y26670
X72390Y30480
X49530Y33020
X49530Y30480
X49530Y40640
X49530Y43180
X72390Y33020
X72390Y40640
X72390Y43180
X69850Y26670
X54610Y13970
X54610Y26670
X52070Y26670
X52070Y13970
X57150Y26670
X59690Y26670
X62230Y26670
X57150Y13970
X59690Y13970
X62230Y13970
X64770Y26670
X64770Y13970
X67310Y13970
X69850Y13970
T7
X53340Y5080
X79248Y31750
X75692Y31750
X53340Y2540
X12700Y3810
X15240Y3810
X15240Y11430
X15240Y19050
X15240Y26670
X46990Y11430
X54610Y11430
X12700Y13970
X15240Y13970
X12700Y8890
M30