G04 EAGLE Gerber X2 export*
%TF.Part,Single*%
%TF.FileFunction,Profile,NP*%
%TF.FilePolarity,Positive*%
%TF.GenerationSoftware,Autodesk,EAGLE,9.1.0*%
%TF.CreationDate,2018-11-27T10:29:58Z*%
G75*
%MOMM*%
%FSLAX34Y34*%
%LPD*%
%AMOC8*
5,1,8,0,0,1.08239X$1,22.5*%
G01*
%ADD10C,0.254000*%


D10*
X0Y0D02*
X822200Y0D01*
X822200Y444400D01*
X0Y444400D01*
X0Y0D01*
X54100Y405876D02*
X54032Y404831D01*
X53895Y403792D01*
X53690Y402765D01*
X53419Y401753D01*
X53083Y400761D01*
X52682Y399793D01*
X52218Y398854D01*
X51695Y397946D01*
X51113Y397075D01*
X50475Y396244D01*
X49784Y395457D01*
X49043Y394716D01*
X48256Y394025D01*
X47425Y393388D01*
X46554Y392806D01*
X45646Y392282D01*
X44707Y391818D01*
X43739Y391417D01*
X42747Y391081D01*
X41735Y390810D01*
X40708Y390605D01*
X39669Y390469D01*
X38624Y390400D01*
X37576Y390400D01*
X36531Y390469D01*
X35492Y390605D01*
X34465Y390810D01*
X33453Y391081D01*
X32461Y391417D01*
X31493Y391818D01*
X30554Y392282D01*
X29646Y392806D01*
X28775Y393388D01*
X27944Y394025D01*
X27157Y394716D01*
X26416Y395457D01*
X25725Y396244D01*
X25088Y397075D01*
X24506Y397946D01*
X23982Y398854D01*
X23518Y399793D01*
X23117Y400761D01*
X22781Y401753D01*
X22510Y402765D01*
X22305Y403792D01*
X22169Y404831D01*
X22100Y405876D01*
X22100Y406924D01*
X22169Y407969D01*
X22305Y409008D01*
X22510Y410035D01*
X22781Y411047D01*
X23117Y412039D01*
X23518Y413007D01*
X23982Y413946D01*
X24506Y414854D01*
X25088Y415725D01*
X25725Y416556D01*
X26416Y417343D01*
X27157Y418084D01*
X27944Y418775D01*
X28775Y419413D01*
X29646Y419995D01*
X30554Y420518D01*
X31493Y420982D01*
X32461Y421383D01*
X33453Y421719D01*
X34465Y421990D01*
X35492Y422195D01*
X36531Y422332D01*
X37576Y422400D01*
X38624Y422400D01*
X39669Y422332D01*
X40708Y422195D01*
X41735Y421990D01*
X42747Y421719D01*
X43739Y421383D01*
X44707Y420982D01*
X45646Y420518D01*
X46554Y419995D01*
X47425Y419413D01*
X48256Y418775D01*
X49043Y418084D01*
X49784Y417343D01*
X50475Y416556D01*
X51113Y415725D01*
X51695Y414854D01*
X52218Y413946D01*
X52682Y413007D01*
X53083Y412039D01*
X53419Y411047D01*
X53690Y410035D01*
X53895Y409008D01*
X54032Y407969D01*
X54100Y406924D01*
X54100Y405876D01*
X54100Y202676D02*
X54032Y201631D01*
X53895Y200592D01*
X53690Y199565D01*
X53419Y198553D01*
X53083Y197561D01*
X52682Y196593D01*
X52218Y195654D01*
X51695Y194746D01*
X51113Y193875D01*
X50475Y193044D01*
X49784Y192257D01*
X49043Y191516D01*
X48256Y190825D01*
X47425Y190188D01*
X46554Y189606D01*
X45646Y189082D01*
X44707Y188618D01*
X43739Y188217D01*
X42747Y187881D01*
X41735Y187610D01*
X40708Y187405D01*
X39669Y187269D01*
X38624Y187200D01*
X37576Y187200D01*
X36531Y187269D01*
X35492Y187405D01*
X34465Y187610D01*
X33453Y187881D01*
X32461Y188217D01*
X31493Y188618D01*
X30554Y189082D01*
X29646Y189606D01*
X28775Y190188D01*
X27944Y190825D01*
X27157Y191516D01*
X26416Y192257D01*
X25725Y193044D01*
X25088Y193875D01*
X24506Y194746D01*
X23982Y195654D01*
X23518Y196593D01*
X23117Y197561D01*
X22781Y198553D01*
X22510Y199565D01*
X22305Y200592D01*
X22169Y201631D01*
X22100Y202676D01*
X22100Y203724D01*
X22169Y204769D01*
X22305Y205808D01*
X22510Y206835D01*
X22781Y207847D01*
X23117Y208839D01*
X23518Y209807D01*
X23982Y210746D01*
X24506Y211654D01*
X25088Y212525D01*
X25725Y213356D01*
X26416Y214143D01*
X27157Y214884D01*
X27944Y215575D01*
X28775Y216213D01*
X29646Y216795D01*
X30554Y217318D01*
X31493Y217782D01*
X32461Y218183D01*
X33453Y218519D01*
X34465Y218790D01*
X35492Y218995D01*
X36531Y219132D01*
X37576Y219200D01*
X38624Y219200D01*
X39669Y219132D01*
X40708Y218995D01*
X41735Y218790D01*
X42747Y218519D01*
X43739Y218183D01*
X44707Y217782D01*
X45646Y217318D01*
X46554Y216795D01*
X47425Y216213D01*
X48256Y215575D01*
X49043Y214884D01*
X49784Y214143D01*
X50475Y213356D01*
X51113Y212525D01*
X51695Y211654D01*
X52218Y210746D01*
X52682Y209807D01*
X53083Y208839D01*
X53419Y207847D01*
X53690Y206835D01*
X53895Y205808D01*
X54032Y204769D01*
X54100Y203724D01*
X54100Y202676D01*
X790700Y405876D02*
X790632Y404831D01*
X790495Y403792D01*
X790290Y402765D01*
X790019Y401753D01*
X789683Y400761D01*
X789282Y399793D01*
X788818Y398854D01*
X788295Y397946D01*
X787713Y397075D01*
X787075Y396244D01*
X786384Y395457D01*
X785643Y394716D01*
X784856Y394025D01*
X784025Y393388D01*
X783154Y392806D01*
X782246Y392282D01*
X781307Y391818D01*
X780339Y391417D01*
X779347Y391081D01*
X778335Y390810D01*
X777308Y390605D01*
X776269Y390469D01*
X775224Y390400D01*
X774176Y390400D01*
X773131Y390469D01*
X772092Y390605D01*
X771065Y390810D01*
X770053Y391081D01*
X769061Y391417D01*
X768093Y391818D01*
X767154Y392282D01*
X766246Y392806D01*
X765375Y393388D01*
X764544Y394025D01*
X763757Y394716D01*
X763016Y395457D01*
X762325Y396244D01*
X761688Y397075D01*
X761106Y397946D01*
X760582Y398854D01*
X760118Y399793D01*
X759717Y400761D01*
X759381Y401753D01*
X759110Y402765D01*
X758905Y403792D01*
X758769Y404831D01*
X758700Y405876D01*
X758700Y406924D01*
X758769Y407969D01*
X758905Y409008D01*
X759110Y410035D01*
X759381Y411047D01*
X759717Y412039D01*
X760118Y413007D01*
X760582Y413946D01*
X761106Y414854D01*
X761688Y415725D01*
X762325Y416556D01*
X763016Y417343D01*
X763757Y418084D01*
X764544Y418775D01*
X765375Y419413D01*
X766246Y419995D01*
X767154Y420518D01*
X768093Y420982D01*
X769061Y421383D01*
X770053Y421719D01*
X771065Y421990D01*
X772092Y422195D01*
X773131Y422332D01*
X774176Y422400D01*
X775224Y422400D01*
X776269Y422332D01*
X777308Y422195D01*
X778335Y421990D01*
X779347Y421719D01*
X780339Y421383D01*
X781307Y420982D01*
X782246Y420518D01*
X783154Y419995D01*
X784025Y419413D01*
X784856Y418775D01*
X785643Y418084D01*
X786384Y417343D01*
X787075Y416556D01*
X787713Y415725D01*
X788295Y414854D01*
X788818Y413946D01*
X789282Y413007D01*
X789683Y412039D01*
X790019Y411047D01*
X790290Y410035D01*
X790495Y409008D01*
X790632Y407969D01*
X790700Y406924D01*
X790700Y405876D01*
X765300Y151876D02*
X765232Y150831D01*
X765095Y149792D01*
X764890Y148765D01*
X764619Y147753D01*
X764283Y146761D01*
X763882Y145793D01*
X763418Y144854D01*
X762895Y143946D01*
X762313Y143075D01*
X761675Y142244D01*
X760984Y141457D01*
X760243Y140716D01*
X759456Y140025D01*
X758625Y139388D01*
X757754Y138806D01*
X756846Y138282D01*
X755907Y137818D01*
X754939Y137417D01*
X753947Y137081D01*
X752935Y136810D01*
X751908Y136605D01*
X750869Y136469D01*
X749824Y136400D01*
X748776Y136400D01*
X747731Y136469D01*
X746692Y136605D01*
X745665Y136810D01*
X744653Y137081D01*
X743661Y137417D01*
X742693Y137818D01*
X741754Y138282D01*
X740846Y138806D01*
X739975Y139388D01*
X739144Y140025D01*
X738357Y140716D01*
X737616Y141457D01*
X736925Y142244D01*
X736288Y143075D01*
X735706Y143946D01*
X735182Y144854D01*
X734718Y145793D01*
X734317Y146761D01*
X733981Y147753D01*
X733710Y148765D01*
X733505Y149792D01*
X733369Y150831D01*
X733300Y151876D01*
X733300Y152924D01*
X733369Y153969D01*
X733505Y155008D01*
X733710Y156035D01*
X733981Y157047D01*
X734317Y158039D01*
X734718Y159007D01*
X735182Y159946D01*
X735706Y160854D01*
X736288Y161725D01*
X736925Y162556D01*
X737616Y163343D01*
X738357Y164084D01*
X739144Y164775D01*
X739975Y165413D01*
X740846Y165995D01*
X741754Y166518D01*
X742693Y166982D01*
X743661Y167383D01*
X744653Y167719D01*
X745665Y167990D01*
X746692Y168195D01*
X747731Y168332D01*
X748776Y168400D01*
X749824Y168400D01*
X750869Y168332D01*
X751908Y168195D01*
X752935Y167990D01*
X753947Y167719D01*
X754939Y167383D01*
X755907Y166982D01*
X756846Y166518D01*
X757754Y165995D01*
X758625Y165413D01*
X759456Y164775D01*
X760243Y164084D01*
X760984Y163343D01*
X761675Y162556D01*
X762313Y161725D01*
X762895Y160854D01*
X763418Y159946D01*
X763882Y159007D01*
X764283Y158039D01*
X764619Y157047D01*
X764890Y156035D01*
X765095Y155008D01*
X765232Y153969D01*
X765300Y152924D01*
X765300Y151876D01*
M02*
