G04 EAGLE Gerber RS-274X export*
G75*
%MOMM*%
%FSLAX34Y34*%
%LPD*%
%AMOC8*
5,1,8,0,0,1.08239X$1,22.5*%
G01*
%ADD10C,0.152400*%
%ADD11C,0.050800*%
%ADD12C,0.762000*%
%ADD13C,0.127000*%
%ADD14R,0.762000X0.508000*%
%ADD15R,0.762000X1.016000*%
%ADD16C,0.203200*%
%ADD17R,0.609600X0.584200*%
%ADD18C,0.101600*%
%ADD19R,0.508000X0.381000*%
%ADD20R,0.381000X0.508000*%
%ADD21C,0.304800*%
%ADD22R,0.584200X0.609600*%
%ADD23C,0.076200*%


D10*
X709930Y215900D02*
X709930Y275590D01*
X709930Y215900D02*
X709621Y215896D01*
X709312Y215885D01*
X709003Y215866D01*
X708695Y215840D01*
X708387Y215806D01*
X708081Y215765D01*
X707775Y215716D01*
X707471Y215660D01*
X707169Y215596D01*
X706868Y215525D01*
X706568Y215447D01*
X706271Y215362D01*
X705976Y215269D01*
X705683Y215169D01*
X705393Y215062D01*
X705106Y214948D01*
X704821Y214827D01*
X704539Y214699D01*
X704261Y214565D01*
X703986Y214423D01*
X703714Y214275D01*
X703447Y214120D01*
X703183Y213959D01*
X702923Y213792D01*
X702667Y213618D01*
X702415Y213438D01*
X702168Y213252D01*
X701926Y213060D01*
X701688Y212862D01*
X701455Y212659D01*
X701227Y212449D01*
X701005Y212235D01*
X700787Y212015D01*
X700575Y211789D01*
X700369Y211559D01*
X700168Y211324D01*
X699973Y211084D01*
X699784Y210839D01*
X699601Y210590D01*
X699424Y210336D01*
X699254Y210078D01*
X699089Y209816D01*
X698931Y209550D01*
X698780Y209280D01*
X698635Y209007D01*
X698497Y208730D01*
X698366Y208450D01*
X698242Y208167D01*
X698124Y207881D01*
X698014Y207592D01*
X697910Y207301D01*
X697814Y207007D01*
X697725Y206711D01*
X697643Y206412D01*
X697568Y206112D01*
X697501Y205810D01*
X697441Y205507D01*
X697389Y205202D01*
X697344Y204896D01*
X697306Y204589D01*
X697276Y204281D01*
X697254Y203973D01*
X697238Y203664D01*
X697231Y203355D01*
X697231Y203045D01*
X697238Y202736D01*
X697254Y202427D01*
X697276Y202119D01*
X697306Y201811D01*
X697344Y201504D01*
X697389Y201198D01*
X697441Y200893D01*
X697501Y200590D01*
X697568Y200288D01*
X697643Y199988D01*
X697725Y199689D01*
X697814Y199393D01*
X697910Y199099D01*
X698014Y198808D01*
X698124Y198519D01*
X698242Y198233D01*
X698366Y197950D01*
X698497Y197670D01*
X698635Y197393D01*
X698780Y197120D01*
X698931Y196850D01*
X699089Y196584D01*
X699254Y196322D01*
X699424Y196064D01*
X699601Y195810D01*
X699784Y195561D01*
X699973Y195316D01*
X700168Y195076D01*
X700369Y194841D01*
X700575Y194611D01*
X700787Y194385D01*
X701005Y194165D01*
X701227Y193951D01*
X701455Y193741D01*
X701688Y193538D01*
X701926Y193340D01*
X702168Y193148D01*
X702415Y192962D01*
X702667Y192782D01*
X702923Y192608D01*
X703183Y192441D01*
X703447Y192280D01*
X703714Y192125D01*
X703986Y191977D01*
X704261Y191835D01*
X704539Y191701D01*
X704821Y191573D01*
X705106Y191452D01*
X705393Y191338D01*
X705683Y191231D01*
X705976Y191131D01*
X706271Y191038D01*
X706568Y190953D01*
X706868Y190875D01*
X707169Y190804D01*
X707471Y190740D01*
X707775Y190684D01*
X708081Y190635D01*
X708387Y190594D01*
X708695Y190560D01*
X709003Y190534D01*
X709312Y190515D01*
X709621Y190504D01*
X709930Y190500D01*
X509270Y130810D02*
X509270Y275590D01*
X709930Y190500D02*
X709930Y130810D01*
X509270Y130810D01*
X509270Y275590D02*
X709930Y275590D01*
D11*
X692399Y246756D02*
X692399Y243028D01*
X697992Y243028D01*
X697992Y246756D01*
X695196Y244892D02*
X695196Y243028D01*
X697992Y248641D02*
X692399Y248641D01*
X697992Y252369D01*
X692399Y252369D01*
X672592Y237415D02*
X666999Y237415D01*
X668864Y239279D01*
X666999Y241143D01*
X672592Y241143D01*
X666999Y245824D02*
X667931Y246756D01*
X666999Y245824D02*
X666999Y243960D01*
X667931Y243028D01*
X668864Y243028D01*
X669796Y243960D01*
X669796Y245824D01*
X670728Y246756D01*
X671660Y246756D01*
X672592Y245824D01*
X672592Y243960D01*
X671660Y243028D01*
X668864Y248641D02*
X666999Y250505D01*
X672592Y250505D01*
X672592Y248641D02*
X672592Y252369D01*
X647192Y237415D02*
X641599Y237415D01*
X643464Y239279D01*
X641599Y241143D01*
X647192Y241143D01*
X641599Y245824D02*
X642531Y246756D01*
X641599Y245824D02*
X641599Y243960D01*
X642531Y243028D01*
X643464Y243028D01*
X644396Y243960D01*
X644396Y245824D01*
X645328Y246756D01*
X646260Y246756D01*
X647192Y245824D01*
X647192Y243960D01*
X646260Y243028D01*
X647192Y248641D02*
X647192Y252369D01*
X647192Y248641D02*
X643464Y252369D01*
X642531Y252369D01*
X641599Y251437D01*
X641599Y249573D01*
X642531Y248641D01*
X621792Y237415D02*
X616199Y237415D01*
X618064Y239279D01*
X616199Y241143D01*
X621792Y241143D01*
X616199Y245824D02*
X617131Y246756D01*
X616199Y245824D02*
X616199Y243960D01*
X617131Y243028D01*
X618064Y243028D01*
X618996Y243960D01*
X618996Y245824D01*
X619928Y246756D01*
X620860Y246756D01*
X621792Y245824D01*
X621792Y243960D01*
X620860Y243028D01*
X617131Y248641D02*
X616199Y249573D01*
X616199Y251437D01*
X617131Y252369D01*
X618064Y252369D01*
X618996Y251437D01*
X618996Y250505D01*
X618996Y251437D02*
X619928Y252369D01*
X620860Y252369D01*
X621792Y251437D01*
X621792Y249573D01*
X620860Y248641D01*
X596392Y237415D02*
X590799Y237415D01*
X590799Y240211D01*
X591731Y241143D01*
X593596Y241143D01*
X594528Y240211D01*
X594528Y237415D01*
X594528Y239279D02*
X596392Y241143D01*
X590799Y245824D02*
X591731Y246756D01*
X590799Y245824D02*
X590799Y243960D01*
X591731Y243028D01*
X592664Y243028D01*
X593596Y243960D01*
X593596Y245824D01*
X594528Y246756D01*
X595460Y246756D01*
X596392Y245824D01*
X596392Y243960D01*
X595460Y243028D01*
X596392Y250505D02*
X590799Y250505D01*
X590799Y248641D02*
X590799Y252369D01*
X540931Y235530D02*
X539999Y234598D01*
X539999Y232734D01*
X540931Y231802D01*
X541864Y231802D01*
X542796Y232734D01*
X542796Y234598D01*
X543728Y235530D01*
X544660Y235530D01*
X545592Y234598D01*
X545592Y232734D01*
X544660Y231802D01*
X545592Y239279D02*
X539999Y239279D01*
X539999Y237415D02*
X539999Y241143D01*
X539999Y243028D02*
X539999Y246756D01*
X539999Y243028D02*
X545592Y243028D01*
X545592Y246756D01*
X542796Y244892D02*
X542796Y243028D01*
X545592Y248641D02*
X539999Y248641D01*
X539999Y251437D01*
X540931Y252369D01*
X542796Y252369D01*
X543728Y251437D01*
X543728Y248641D01*
X520192Y239286D02*
X514599Y239286D01*
X520192Y239286D02*
X520192Y242082D01*
X519260Y243014D01*
X515531Y243014D01*
X514599Y242082D01*
X514599Y239286D01*
X520192Y244899D02*
X520192Y246763D01*
X520192Y245831D02*
X514599Y245831D01*
X514599Y244899D02*
X514599Y246763D01*
X514599Y248641D02*
X520192Y248641D01*
X514599Y248641D02*
X514599Y251437D01*
X515531Y252369D01*
X517396Y252369D01*
X518328Y251437D01*
X518328Y248641D01*
X518328Y250505D02*
X520192Y252369D01*
X699003Y152654D02*
X702732Y152654D01*
X704596Y154518D01*
X702732Y156383D01*
X699003Y156383D01*
X700868Y158267D02*
X704596Y158267D01*
X700868Y158267D02*
X700868Y159199D01*
X701800Y160131D01*
X704596Y160131D01*
X701800Y160131D02*
X700868Y161063D01*
X701800Y161996D01*
X704596Y161996D01*
X704596Y164812D02*
X704596Y166677D01*
X703664Y167609D01*
X701800Y167609D01*
X700868Y166677D01*
X700868Y164812D01*
X701800Y163880D01*
X703664Y163880D01*
X704596Y164812D01*
X703664Y170425D02*
X699935Y170425D01*
X703664Y170425D02*
X704596Y171358D01*
X700868Y171358D02*
X700868Y169493D01*
X674535Y156383D02*
X673603Y155450D01*
X673603Y153586D01*
X674535Y152654D01*
X678264Y152654D01*
X679196Y153586D01*
X679196Y155450D01*
X678264Y156383D01*
X676400Y156383D01*
X676400Y154518D01*
X679196Y158267D02*
X673603Y158267D01*
X679196Y161996D01*
X673603Y161996D01*
X673603Y163880D02*
X679196Y163880D01*
X679196Y166677D01*
X678264Y167609D01*
X674535Y167609D01*
X673603Y166677D01*
X673603Y163880D01*
X653796Y156383D02*
X653796Y152654D01*
X650068Y156383D01*
X649135Y156383D01*
X648203Y155450D01*
X648203Y153586D01*
X649135Y152654D01*
X648203Y158267D02*
X653796Y158267D01*
X648203Y158267D02*
X648203Y161063D01*
X649135Y161996D01*
X650068Y161996D01*
X651000Y161063D01*
X651932Y161996D01*
X652864Y161996D01*
X653796Y161063D01*
X653796Y158267D01*
X651000Y158267D02*
X651000Y161063D01*
X628396Y156383D02*
X628396Y152654D01*
X624668Y156383D01*
X623735Y156383D01*
X622803Y155450D01*
X622803Y153586D01*
X623735Y152654D01*
X624668Y158267D02*
X628396Y158267D01*
X624668Y158267D02*
X622803Y160131D01*
X624668Y161996D01*
X628396Y161996D01*
X625600Y161996D02*
X625600Y158267D01*
X599268Y152654D02*
X597403Y154518D01*
X602996Y154518D01*
X602996Y152654D02*
X602996Y156383D01*
X602996Y158267D02*
X599268Y158267D01*
X597403Y160131D01*
X599268Y161996D01*
X602996Y161996D01*
X600200Y161996D02*
X600200Y158267D01*
X573868Y152654D02*
X572003Y154518D01*
X577596Y154518D01*
X577596Y152654D02*
X577596Y156383D01*
X577596Y158267D02*
X572003Y158267D01*
X572003Y161063D01*
X572935Y161996D01*
X573868Y161996D01*
X574800Y161063D01*
X575732Y161996D01*
X576664Y161996D01*
X577596Y161063D01*
X577596Y158267D01*
X574800Y158267D02*
X574800Y161063D01*
X550332Y152654D02*
X546603Y152654D01*
X550332Y152654D02*
X552196Y154518D01*
X550332Y156383D01*
X546603Y156383D01*
X546603Y158267D02*
X552196Y158267D01*
X552196Y161063D01*
X551264Y161996D01*
X547535Y161996D01*
X546603Y161063D01*
X546603Y158267D01*
X546603Y163880D02*
X552196Y163880D01*
X552196Y166677D01*
X551264Y167609D01*
X547535Y167609D01*
X546603Y166677D01*
X546603Y163880D01*
X522135Y156383D02*
X521203Y155450D01*
X521203Y153586D01*
X522135Y152654D01*
X525864Y152654D01*
X526796Y153586D01*
X526796Y155450D01*
X525864Y156383D01*
X524000Y156383D01*
X524000Y154518D01*
X526796Y158267D02*
X521203Y158267D01*
X526796Y161996D01*
X521203Y161996D01*
X521203Y163880D02*
X526796Y163880D01*
X526796Y166677D01*
X525864Y167609D01*
X522135Y167609D01*
X521203Y166677D01*
X521203Y163880D01*
X565399Y240211D02*
X566331Y241143D01*
X565399Y240211D02*
X565399Y238347D01*
X566331Y237415D01*
X567264Y237415D01*
X568196Y238347D01*
X568196Y240211D01*
X569128Y241143D01*
X570060Y241143D01*
X570992Y240211D01*
X570992Y238347D01*
X570060Y237415D01*
X570992Y243028D02*
X565399Y243028D01*
X570992Y243028D02*
X570992Y246756D01*
X570992Y248641D02*
X565399Y248641D01*
X565399Y251437D01*
X566331Y252369D01*
X568196Y252369D01*
X569128Y251437D01*
X569128Y248641D01*
D10*
X660400Y31750D02*
X685800Y31750D01*
X660400Y31750D02*
X660400Y6350D01*
X685800Y6350D01*
X685800Y31750D01*
D12*
X673100Y0D02*
X673100Y-57150D01*
D10*
X660400Y31750D02*
X635000Y31750D01*
X635000Y6350D01*
X660400Y6350D01*
D12*
X647700Y0D02*
X647700Y-57150D01*
D10*
X635000Y31750D02*
X609600Y31750D01*
X609600Y6350D01*
X635000Y6350D01*
D12*
X622300Y0D02*
X622300Y-57150D01*
D10*
X609600Y31750D02*
X584200Y31750D01*
X584200Y6350D01*
X609600Y6350D01*
D12*
X596900Y0D02*
X596900Y-57150D01*
D13*
X702308Y16353D02*
X704215Y18260D01*
X704215Y20166D01*
X702308Y22073D01*
X692775Y22073D01*
X692775Y20166D02*
X692775Y23980D01*
X692775Y28047D02*
X704215Y28047D01*
X692775Y28047D02*
X692775Y33767D01*
X694682Y35674D01*
X698495Y35674D01*
X700402Y33767D01*
X700402Y28047D01*
X696589Y39741D02*
X692775Y43554D01*
X704215Y43554D01*
X704215Y39741D02*
X704215Y47367D01*
D14*
X673100Y3810D03*
X647700Y3810D03*
X622300Y3810D03*
X596900Y3810D03*
D15*
X673100Y36830D03*
X647700Y36830D03*
X622300Y36830D03*
X596900Y36830D03*
D10*
X76200Y31750D02*
X50800Y31750D01*
X50800Y6350D01*
X76200Y6350D01*
X76200Y31750D01*
D12*
X63500Y0D02*
X63500Y-57150D01*
D10*
X50800Y31750D02*
X25400Y31750D01*
X25400Y6350D01*
X50800Y6350D01*
D12*
X38100Y0D02*
X38100Y-57150D01*
D13*
X83175Y-30423D02*
X83175Y-22796D01*
X83175Y-30423D02*
X94615Y-30423D01*
X94615Y-22796D01*
X88895Y-26610D02*
X88895Y-30423D01*
X94615Y-18729D02*
X83175Y-18729D01*
X94615Y-11102D01*
X83175Y-11102D01*
X83175Y-7035D02*
X94615Y-7035D01*
X94615Y-1315D01*
X92708Y592D01*
X85082Y592D01*
X83175Y-1315D01*
X83175Y-7035D01*
X83175Y10379D02*
X85082Y12285D01*
X83175Y10379D02*
X83175Y6566D01*
X85082Y4659D01*
X86989Y4659D01*
X88895Y6566D01*
X88895Y10379D01*
X90802Y12285D01*
X92708Y12285D01*
X94615Y10379D01*
X94615Y6566D01*
X92708Y4659D01*
X94615Y20166D02*
X83175Y20166D01*
X83175Y16353D02*
X83175Y23979D01*
X83175Y29954D02*
X83175Y33767D01*
X83175Y29954D02*
X85082Y28047D01*
X92708Y28047D01*
X94615Y29954D01*
X94615Y33767D01*
X92708Y35673D01*
X85082Y35673D01*
X83175Y33767D01*
X83175Y39741D02*
X94615Y39741D01*
X83175Y39741D02*
X83175Y45461D01*
X85082Y47367D01*
X88895Y47367D01*
X90802Y45461D01*
X90802Y39741D01*
D14*
X63500Y3810D03*
X38100Y3810D03*
D15*
X63500Y36830D03*
X38100Y36830D03*
D10*
X740410Y328930D02*
X748030Y328930D01*
X744220Y325120D02*
X744220Y332740D01*
X734060Y317500D02*
X734072Y318497D01*
X734109Y319494D01*
X734170Y320490D01*
X734256Y321483D01*
X734366Y322475D01*
X734500Y323463D01*
X734658Y324448D01*
X734841Y325428D01*
X735047Y326404D01*
X735278Y327375D01*
X735532Y328339D01*
X735810Y329297D01*
X736111Y330248D01*
X736436Y331191D01*
X736783Y332126D01*
X737154Y333052D01*
X737547Y333969D01*
X737962Y334876D01*
X738399Y335772D01*
X738859Y336658D01*
X739340Y337531D01*
X739842Y338393D01*
X740365Y339242D01*
X740909Y340078D01*
X741473Y340901D01*
X742058Y341709D01*
X742662Y342503D01*
X743285Y343282D01*
X743927Y344045D01*
X744588Y344792D01*
X745267Y345523D01*
X745963Y346237D01*
X746677Y346933D01*
X747408Y347612D01*
X748155Y348273D01*
X748918Y348915D01*
X749697Y349538D01*
X750491Y350142D01*
X751299Y350727D01*
X752122Y351291D01*
X752958Y351835D01*
X753807Y352358D01*
X754669Y352860D01*
X755542Y353341D01*
X756428Y353801D01*
X757324Y354238D01*
X758231Y354653D01*
X759148Y355046D01*
X760074Y355417D01*
X761009Y355764D01*
X761952Y356089D01*
X762903Y356390D01*
X763861Y356668D01*
X764825Y356922D01*
X765796Y357153D01*
X766772Y357359D01*
X767752Y357542D01*
X768737Y357700D01*
X769725Y357834D01*
X770717Y357944D01*
X771710Y358030D01*
X772706Y358091D01*
X773703Y358128D01*
X774700Y358140D01*
X775697Y358128D01*
X776694Y358091D01*
X777690Y358030D01*
X778683Y357944D01*
X779675Y357834D01*
X780663Y357700D01*
X781648Y357542D01*
X782628Y357359D01*
X783604Y357153D01*
X784575Y356922D01*
X785539Y356668D01*
X786497Y356390D01*
X787448Y356089D01*
X788391Y355764D01*
X789326Y355417D01*
X790252Y355046D01*
X791169Y354653D01*
X792076Y354238D01*
X792972Y353801D01*
X793858Y353341D01*
X794731Y352860D01*
X795593Y352358D01*
X796442Y351835D01*
X797278Y351291D01*
X798101Y350727D01*
X798909Y350142D01*
X799703Y349538D01*
X800482Y348915D01*
X801245Y348273D01*
X801992Y347612D01*
X802723Y346933D01*
X803437Y346237D01*
X804133Y345523D01*
X804812Y344792D01*
X805473Y344045D01*
X806115Y343282D01*
X806738Y342503D01*
X807342Y341709D01*
X807927Y340901D01*
X808491Y340078D01*
X809035Y339242D01*
X809558Y338393D01*
X810060Y337531D01*
X810541Y336658D01*
X811001Y335772D01*
X811438Y334876D01*
X811853Y333969D01*
X812246Y333052D01*
X812617Y332126D01*
X812964Y331191D01*
X813289Y330248D01*
X813590Y329297D01*
X813868Y328339D01*
X814122Y327375D01*
X814353Y326404D01*
X814559Y325428D01*
X814742Y324448D01*
X814900Y323463D01*
X815034Y322475D01*
X815144Y321483D01*
X815230Y320490D01*
X815291Y319494D01*
X815328Y318497D01*
X815340Y317500D01*
X815328Y316503D01*
X815291Y315506D01*
X815230Y314510D01*
X815144Y313517D01*
X815034Y312525D01*
X814900Y311537D01*
X814742Y310552D01*
X814559Y309572D01*
X814353Y308596D01*
X814122Y307625D01*
X813868Y306661D01*
X813590Y305703D01*
X813289Y304752D01*
X812964Y303809D01*
X812617Y302874D01*
X812246Y301948D01*
X811853Y301031D01*
X811438Y300124D01*
X811001Y299228D01*
X810541Y298342D01*
X810060Y297469D01*
X809558Y296607D01*
X809035Y295758D01*
X808491Y294922D01*
X807927Y294099D01*
X807342Y293291D01*
X806738Y292497D01*
X806115Y291718D01*
X805473Y290955D01*
X804812Y290208D01*
X804133Y289477D01*
X803437Y288763D01*
X802723Y288067D01*
X801992Y287388D01*
X801245Y286727D01*
X800482Y286085D01*
X799703Y285462D01*
X798909Y284858D01*
X798101Y284273D01*
X797278Y283709D01*
X796442Y283165D01*
X795593Y282642D01*
X794731Y282140D01*
X793858Y281659D01*
X792972Y281199D01*
X792076Y280762D01*
X791169Y280347D01*
X790252Y279954D01*
X789326Y279583D01*
X788391Y279236D01*
X787448Y278911D01*
X786497Y278610D01*
X785539Y278332D01*
X784575Y278078D01*
X783604Y277847D01*
X782628Y277641D01*
X781648Y277458D01*
X780663Y277300D01*
X779675Y277166D01*
X778683Y277056D01*
X777690Y276970D01*
X776694Y276909D01*
X775697Y276872D01*
X774700Y276860D01*
X773703Y276872D01*
X772706Y276909D01*
X771710Y276970D01*
X770717Y277056D01*
X769725Y277166D01*
X768737Y277300D01*
X767752Y277458D01*
X766772Y277641D01*
X765796Y277847D01*
X764825Y278078D01*
X763861Y278332D01*
X762903Y278610D01*
X761952Y278911D01*
X761009Y279236D01*
X760074Y279583D01*
X759148Y279954D01*
X758231Y280347D01*
X757324Y280762D01*
X756428Y281199D01*
X755542Y281659D01*
X754669Y282140D01*
X753807Y282642D01*
X752958Y283165D01*
X752122Y283709D01*
X751299Y284273D01*
X750491Y284858D01*
X749697Y285462D01*
X748918Y286085D01*
X748155Y286727D01*
X747408Y287388D01*
X746677Y288067D01*
X745963Y288763D01*
X745267Y289477D01*
X744588Y290208D01*
X743927Y290955D01*
X743285Y291718D01*
X742662Y292497D01*
X742058Y293291D01*
X741473Y294099D01*
X740909Y294922D01*
X740365Y295758D01*
X739842Y296607D01*
X739340Y297469D01*
X738859Y298342D01*
X738399Y299228D01*
X737962Y300124D01*
X737547Y301031D01*
X737154Y301948D01*
X736783Y302874D01*
X736436Y303809D01*
X736111Y304752D01*
X735810Y305703D01*
X735532Y306661D01*
X735278Y307625D01*
X735047Y308596D01*
X734841Y309572D01*
X734658Y310552D01*
X734500Y311537D01*
X734366Y312525D01*
X734256Y313517D01*
X734170Y314510D01*
X734109Y315506D01*
X734072Y316503D01*
X734060Y317500D01*
D13*
X814075Y357515D02*
X815982Y355608D01*
X814075Y357515D02*
X810262Y357515D01*
X808355Y355608D01*
X808355Y347982D01*
X810262Y346075D01*
X814075Y346075D01*
X815982Y347982D01*
X825769Y346075D02*
X825769Y357515D01*
X820049Y351795D01*
X827675Y351795D01*
D16*
X794300Y86200D02*
X773300Y86200D01*
X794300Y32200D02*
X794300Y-20800D01*
X794300Y79200D02*
X794300Y86200D01*
X704300Y86200D02*
X704300Y-20800D01*
X704300Y86200D02*
X725300Y86200D01*
X704300Y-20800D02*
X794300Y-20800D01*
D13*
X737024Y-31877D02*
X736219Y-31072D01*
X737024Y-31877D02*
X737829Y-31877D01*
X738634Y-31072D01*
X738634Y-27047D01*
X737829Y-27047D02*
X739439Y-27047D01*
X741832Y-27852D02*
X742637Y-27047D01*
X744247Y-27047D01*
X745052Y-27852D01*
X745052Y-28657D01*
X744247Y-29462D01*
X743442Y-29462D01*
X744247Y-29462D02*
X745052Y-30267D01*
X745052Y-31072D01*
X744247Y-31877D01*
X742637Y-31877D01*
X741832Y-31072D01*
D10*
X556260Y25400D02*
X556265Y25774D01*
X556278Y26148D01*
X556301Y26521D01*
X556333Y26894D01*
X556375Y27266D01*
X556425Y27636D01*
X556484Y28005D01*
X556553Y28373D01*
X556630Y28739D01*
X556717Y29103D01*
X556812Y29465D01*
X556916Y29824D01*
X557029Y30181D01*
X557151Y30534D01*
X557281Y30885D01*
X557420Y31232D01*
X557567Y31576D01*
X557723Y31916D01*
X557887Y32252D01*
X558060Y32584D01*
X558240Y32912D01*
X558428Y33235D01*
X558624Y33553D01*
X558828Y33867D01*
X559040Y34175D01*
X559259Y34478D01*
X559486Y34776D01*
X559719Y35068D01*
X559960Y35354D01*
X560208Y35635D01*
X560462Y35909D01*
X560724Y36176D01*
X560991Y36438D01*
X561265Y36692D01*
X561546Y36940D01*
X561832Y37181D01*
X562124Y37414D01*
X562422Y37641D01*
X562725Y37860D01*
X563033Y38072D01*
X563347Y38276D01*
X563665Y38472D01*
X563988Y38660D01*
X564316Y38840D01*
X564648Y39013D01*
X564984Y39177D01*
X565324Y39333D01*
X565668Y39480D01*
X566015Y39619D01*
X566366Y39749D01*
X566719Y39871D01*
X567076Y39984D01*
X567435Y40088D01*
X567797Y40183D01*
X568161Y40270D01*
X568527Y40347D01*
X568895Y40416D01*
X569264Y40475D01*
X569634Y40525D01*
X570006Y40567D01*
X570379Y40599D01*
X570752Y40622D01*
X571126Y40635D01*
X571500Y40640D01*
X571874Y40635D01*
X572248Y40622D01*
X572621Y40599D01*
X572994Y40567D01*
X573366Y40525D01*
X573736Y40475D01*
X574105Y40416D01*
X574473Y40347D01*
X574839Y40270D01*
X575203Y40183D01*
X575565Y40088D01*
X575924Y39984D01*
X576281Y39871D01*
X576634Y39749D01*
X576985Y39619D01*
X577332Y39480D01*
X577676Y39333D01*
X578016Y39177D01*
X578352Y39013D01*
X578684Y38840D01*
X579012Y38660D01*
X579335Y38472D01*
X579653Y38276D01*
X579967Y38072D01*
X580275Y37860D01*
X580578Y37641D01*
X580876Y37414D01*
X581168Y37181D01*
X581454Y36940D01*
X581735Y36692D01*
X582009Y36438D01*
X582276Y36176D01*
X582538Y35909D01*
X582792Y35635D01*
X583040Y35354D01*
X583281Y35068D01*
X583514Y34776D01*
X583741Y34478D01*
X583960Y34175D01*
X584172Y33867D01*
X584376Y33553D01*
X584572Y33235D01*
X584760Y32912D01*
X584940Y32584D01*
X585113Y32252D01*
X585277Y31916D01*
X585433Y31576D01*
X585580Y31232D01*
X585719Y30885D01*
X585849Y30534D01*
X585971Y30181D01*
X586084Y29824D01*
X586188Y29465D01*
X586283Y29103D01*
X586370Y28739D01*
X586447Y28373D01*
X586516Y28005D01*
X586575Y27636D01*
X586625Y27266D01*
X586667Y26894D01*
X586699Y26521D01*
X586722Y26148D01*
X586735Y25774D01*
X586740Y25400D01*
X586735Y25026D01*
X586722Y24652D01*
X586699Y24279D01*
X586667Y23906D01*
X586625Y23534D01*
X586575Y23164D01*
X586516Y22795D01*
X586447Y22427D01*
X586370Y22061D01*
X586283Y21697D01*
X586188Y21335D01*
X586084Y20976D01*
X585971Y20619D01*
X585849Y20266D01*
X585719Y19915D01*
X585580Y19568D01*
X585433Y19224D01*
X585277Y18884D01*
X585113Y18548D01*
X584940Y18216D01*
X584760Y17888D01*
X584572Y17565D01*
X584376Y17247D01*
X584172Y16933D01*
X583960Y16625D01*
X583741Y16322D01*
X583514Y16024D01*
X583281Y15732D01*
X583040Y15446D01*
X582792Y15165D01*
X582538Y14891D01*
X582276Y14624D01*
X582009Y14362D01*
X581735Y14108D01*
X581454Y13860D01*
X581168Y13619D01*
X580876Y13386D01*
X580578Y13159D01*
X580275Y12940D01*
X579967Y12728D01*
X579653Y12524D01*
X579335Y12328D01*
X579012Y12140D01*
X578684Y11960D01*
X578352Y11787D01*
X578016Y11623D01*
X577676Y11467D01*
X577332Y11320D01*
X576985Y11181D01*
X576634Y11051D01*
X576281Y10929D01*
X575924Y10816D01*
X575565Y10712D01*
X575203Y10617D01*
X574839Y10530D01*
X574473Y10453D01*
X574105Y10384D01*
X573736Y10325D01*
X573366Y10275D01*
X572994Y10233D01*
X572621Y10201D01*
X572248Y10178D01*
X571874Y10165D01*
X571500Y10160D01*
X571126Y10165D01*
X570752Y10178D01*
X570379Y10201D01*
X570006Y10233D01*
X569634Y10275D01*
X569264Y10325D01*
X568895Y10384D01*
X568527Y10453D01*
X568161Y10530D01*
X567797Y10617D01*
X567435Y10712D01*
X567076Y10816D01*
X566719Y10929D01*
X566366Y11051D01*
X566015Y11181D01*
X565668Y11320D01*
X565324Y11467D01*
X564984Y11623D01*
X564648Y11787D01*
X564316Y11960D01*
X563988Y12140D01*
X563665Y12328D01*
X563347Y12524D01*
X563033Y12728D01*
X562725Y12940D01*
X562422Y13159D01*
X562124Y13386D01*
X561832Y13619D01*
X561546Y13860D01*
X561265Y14108D01*
X560991Y14362D01*
X560724Y14624D01*
X560462Y14891D01*
X560208Y15165D01*
X559960Y15446D01*
X559719Y15732D01*
X559486Y16024D01*
X559259Y16322D01*
X559040Y16625D01*
X558828Y16933D01*
X558624Y17247D01*
X558428Y17565D01*
X558240Y17888D01*
X558060Y18216D01*
X557887Y18548D01*
X557723Y18884D01*
X557567Y19224D01*
X557420Y19568D01*
X557281Y19915D01*
X557151Y20266D01*
X557029Y20619D01*
X556916Y20976D01*
X556812Y21335D01*
X556717Y21697D01*
X556630Y22061D01*
X556553Y22427D01*
X556484Y22795D01*
X556425Y23164D01*
X556375Y23534D01*
X556333Y23906D01*
X556301Y24279D01*
X556278Y24652D01*
X556265Y25026D01*
X556260Y25400D01*
D13*
X560705Y41275D02*
X549265Y41275D01*
X549265Y46995D01*
X551172Y48902D01*
X554985Y48902D01*
X556892Y46995D01*
X556892Y41275D01*
X556892Y45088D02*
X560705Y48902D01*
X551172Y52969D02*
X549265Y54876D01*
X549265Y58689D01*
X551172Y60595D01*
X553079Y60595D01*
X554985Y58689D01*
X554985Y56782D01*
X554985Y58689D02*
X556892Y60595D01*
X558798Y60595D01*
X560705Y58689D01*
X560705Y54876D01*
X558798Y52969D01*
D17*
X571500Y37719D03*
D10*
X450850Y76200D02*
X438150Y76200D01*
X450850Y76200D02*
X457200Y69850D01*
X457200Y57150D01*
X450850Y50800D01*
X431800Y57150D02*
X431800Y69850D01*
X438150Y76200D01*
X431800Y57150D02*
X438150Y50800D01*
X450850Y50800D01*
D13*
X431673Y82423D02*
X431673Y93863D01*
X431673Y82423D02*
X437393Y82423D01*
X439300Y84330D01*
X439300Y91956D01*
X437393Y93863D01*
X431673Y93863D01*
X443367Y80516D02*
X450993Y80516D01*
X455061Y93863D02*
X462687Y93863D01*
X455061Y93863D02*
X455061Y88143D01*
X458874Y90050D01*
X460781Y90050D01*
X462687Y88143D01*
X462687Y84330D01*
X460781Y82423D01*
X456968Y82423D01*
X455061Y84330D01*
X466755Y86236D02*
X466755Y93863D01*
X466755Y86236D02*
X470568Y82423D01*
X474381Y86236D01*
X474381Y93863D01*
D10*
X463550Y342900D02*
X450850Y342900D01*
X463550Y342900D02*
X469900Y336550D01*
X469900Y323850D01*
X463550Y317500D01*
X444500Y323850D02*
X444500Y336550D01*
X450850Y342900D01*
X444500Y323850D02*
X450850Y317500D01*
X463550Y317500D01*
D13*
X452000Y358656D02*
X450093Y360563D01*
X446280Y360563D01*
X444373Y358656D01*
X444373Y356750D01*
X446280Y354843D01*
X450093Y354843D01*
X452000Y352936D01*
X452000Y351030D01*
X450093Y349123D01*
X446280Y349123D01*
X444373Y351030D01*
X456067Y347216D02*
X463693Y347216D01*
X467761Y360563D02*
X475387Y360563D01*
X467761Y360563D02*
X467761Y354843D01*
X471574Y356750D01*
X473481Y356750D01*
X475387Y354843D01*
X475387Y351030D01*
X473481Y349123D01*
X469668Y349123D01*
X467761Y351030D01*
X479455Y352936D02*
X479455Y360563D01*
X479455Y352936D02*
X483268Y349123D01*
X487081Y352936D01*
X487081Y360563D01*
D10*
X565150Y101600D02*
X577850Y101600D01*
X584200Y95250D01*
X584200Y82550D01*
X577850Y76200D01*
X558800Y82550D02*
X558800Y95250D01*
X565150Y101600D01*
X558800Y82550D02*
X565150Y76200D01*
X577850Y76200D01*
D13*
X558673Y107823D02*
X558673Y119263D01*
X558673Y107823D02*
X564393Y107823D01*
X566300Y109730D01*
X566300Y117356D01*
X564393Y119263D01*
X558673Y119263D01*
X570367Y105916D02*
X577993Y105916D01*
X582061Y117356D02*
X583968Y119263D01*
X587781Y119263D01*
X589687Y117356D01*
X589687Y115450D01*
X587781Y113543D01*
X585874Y113543D01*
X587781Y113543D02*
X589687Y111636D01*
X589687Y109730D01*
X587781Y107823D01*
X583968Y107823D01*
X582061Y109730D01*
X593755Y111636D02*
X593755Y119263D01*
X593755Y111636D02*
X597568Y107823D01*
X601381Y111636D01*
X601381Y119263D01*
D10*
X144780Y50800D02*
X144680Y50802D01*
X144581Y50808D01*
X144481Y50818D01*
X144383Y50831D01*
X144284Y50849D01*
X144187Y50870D01*
X144091Y50895D01*
X143995Y50924D01*
X143901Y50957D01*
X143808Y50993D01*
X143717Y51033D01*
X143627Y51077D01*
X143539Y51124D01*
X143453Y51174D01*
X143369Y51228D01*
X143287Y51285D01*
X143208Y51345D01*
X143130Y51409D01*
X143056Y51475D01*
X142984Y51544D01*
X142915Y51616D01*
X142849Y51690D01*
X142785Y51768D01*
X142725Y51847D01*
X142668Y51929D01*
X142614Y52013D01*
X142564Y52099D01*
X142517Y52187D01*
X142473Y52277D01*
X142433Y52368D01*
X142397Y52461D01*
X142364Y52555D01*
X142335Y52651D01*
X142310Y52747D01*
X142289Y52844D01*
X142271Y52943D01*
X142258Y53041D01*
X142248Y53141D01*
X142242Y53240D01*
X142240Y53340D01*
X160020Y50800D02*
X160120Y50802D01*
X160219Y50808D01*
X160319Y50818D01*
X160417Y50831D01*
X160516Y50849D01*
X160613Y50870D01*
X160709Y50895D01*
X160805Y50924D01*
X160899Y50957D01*
X160992Y50993D01*
X161083Y51033D01*
X161173Y51077D01*
X161261Y51124D01*
X161347Y51174D01*
X161431Y51228D01*
X161513Y51285D01*
X161592Y51345D01*
X161670Y51409D01*
X161744Y51475D01*
X161816Y51544D01*
X161885Y51616D01*
X161951Y51690D01*
X162015Y51768D01*
X162075Y51847D01*
X162132Y51929D01*
X162186Y52013D01*
X162236Y52099D01*
X162283Y52187D01*
X162327Y52277D01*
X162367Y52368D01*
X162403Y52461D01*
X162436Y52555D01*
X162465Y52651D01*
X162490Y52747D01*
X162511Y52844D01*
X162529Y52943D01*
X162542Y53041D01*
X162552Y53141D01*
X162558Y53240D01*
X162560Y53340D01*
X162560Y99060D02*
X162558Y99160D01*
X162552Y99259D01*
X162542Y99359D01*
X162529Y99457D01*
X162511Y99556D01*
X162490Y99653D01*
X162465Y99749D01*
X162436Y99845D01*
X162403Y99939D01*
X162367Y100032D01*
X162327Y100123D01*
X162283Y100213D01*
X162236Y100301D01*
X162186Y100387D01*
X162132Y100471D01*
X162075Y100553D01*
X162015Y100632D01*
X161951Y100710D01*
X161885Y100784D01*
X161816Y100856D01*
X161744Y100925D01*
X161670Y100991D01*
X161592Y101055D01*
X161513Y101115D01*
X161431Y101172D01*
X161347Y101226D01*
X161261Y101276D01*
X161173Y101323D01*
X161083Y101367D01*
X160992Y101407D01*
X160899Y101443D01*
X160805Y101476D01*
X160709Y101505D01*
X160613Y101530D01*
X160516Y101551D01*
X160417Y101569D01*
X160319Y101582D01*
X160219Y101592D01*
X160120Y101598D01*
X160020Y101600D01*
X144780Y101600D02*
X144680Y101598D01*
X144581Y101592D01*
X144481Y101582D01*
X144383Y101569D01*
X144284Y101551D01*
X144187Y101530D01*
X144091Y101505D01*
X143995Y101476D01*
X143901Y101443D01*
X143808Y101407D01*
X143717Y101367D01*
X143627Y101323D01*
X143539Y101276D01*
X143453Y101226D01*
X143369Y101172D01*
X143287Y101115D01*
X143208Y101055D01*
X143130Y100991D01*
X143056Y100925D01*
X142984Y100856D01*
X142915Y100784D01*
X142849Y100710D01*
X142785Y100632D01*
X142725Y100553D01*
X142668Y100471D01*
X142614Y100387D01*
X142564Y100301D01*
X142517Y100213D01*
X142473Y100123D01*
X142433Y100032D01*
X142397Y99939D01*
X142364Y99845D01*
X142335Y99749D01*
X142310Y99653D01*
X142289Y99556D01*
X142271Y99457D01*
X142258Y99359D01*
X142248Y99259D01*
X142242Y99160D01*
X142240Y99060D01*
X144780Y50800D02*
X160020Y50800D01*
X142240Y53340D02*
X142240Y57150D01*
X143510Y58420D01*
X162560Y57150D02*
X162560Y53340D01*
X162560Y57150D02*
X161290Y58420D01*
X143510Y93980D02*
X142240Y95250D01*
X143510Y93980D02*
X143510Y58420D01*
X161290Y93980D02*
X162560Y95250D01*
X161290Y93980D02*
X161290Y58420D01*
X142240Y95250D02*
X142240Y99060D01*
X162560Y99060D02*
X162560Y95250D01*
X160020Y101600D02*
X144780Y101600D01*
D18*
X138938Y51308D02*
X130040Y51308D01*
X130040Y55757D01*
X131523Y57240D01*
X134489Y57240D01*
X135972Y55757D01*
X135972Y51308D01*
X135972Y54274D02*
X138938Y57240D01*
X133006Y60429D02*
X130040Y63395D01*
X138938Y63395D01*
X138938Y60429D02*
X138938Y66361D01*
D19*
X152400Y103505D03*
X152400Y48895D03*
D10*
X119380Y177800D02*
X119280Y177802D01*
X119181Y177808D01*
X119081Y177818D01*
X118983Y177831D01*
X118884Y177849D01*
X118787Y177870D01*
X118691Y177895D01*
X118595Y177924D01*
X118501Y177957D01*
X118408Y177993D01*
X118317Y178033D01*
X118227Y178077D01*
X118139Y178124D01*
X118053Y178174D01*
X117969Y178228D01*
X117887Y178285D01*
X117808Y178345D01*
X117730Y178409D01*
X117656Y178475D01*
X117584Y178544D01*
X117515Y178616D01*
X117449Y178690D01*
X117385Y178768D01*
X117325Y178847D01*
X117268Y178929D01*
X117214Y179013D01*
X117164Y179099D01*
X117117Y179187D01*
X117073Y179277D01*
X117033Y179368D01*
X116997Y179461D01*
X116964Y179555D01*
X116935Y179651D01*
X116910Y179747D01*
X116889Y179844D01*
X116871Y179943D01*
X116858Y180041D01*
X116848Y180141D01*
X116842Y180240D01*
X116840Y180340D01*
X134620Y177800D02*
X134720Y177802D01*
X134819Y177808D01*
X134919Y177818D01*
X135017Y177831D01*
X135116Y177849D01*
X135213Y177870D01*
X135309Y177895D01*
X135405Y177924D01*
X135499Y177957D01*
X135592Y177993D01*
X135683Y178033D01*
X135773Y178077D01*
X135861Y178124D01*
X135947Y178174D01*
X136031Y178228D01*
X136113Y178285D01*
X136192Y178345D01*
X136270Y178409D01*
X136344Y178475D01*
X136416Y178544D01*
X136485Y178616D01*
X136551Y178690D01*
X136615Y178768D01*
X136675Y178847D01*
X136732Y178929D01*
X136786Y179013D01*
X136836Y179099D01*
X136883Y179187D01*
X136927Y179277D01*
X136967Y179368D01*
X137003Y179461D01*
X137036Y179555D01*
X137065Y179651D01*
X137090Y179747D01*
X137111Y179844D01*
X137129Y179943D01*
X137142Y180041D01*
X137152Y180141D01*
X137158Y180240D01*
X137160Y180340D01*
X137160Y226060D02*
X137158Y226160D01*
X137152Y226259D01*
X137142Y226359D01*
X137129Y226457D01*
X137111Y226556D01*
X137090Y226653D01*
X137065Y226749D01*
X137036Y226845D01*
X137003Y226939D01*
X136967Y227032D01*
X136927Y227123D01*
X136883Y227213D01*
X136836Y227301D01*
X136786Y227387D01*
X136732Y227471D01*
X136675Y227553D01*
X136615Y227632D01*
X136551Y227710D01*
X136485Y227784D01*
X136416Y227856D01*
X136344Y227925D01*
X136270Y227991D01*
X136192Y228055D01*
X136113Y228115D01*
X136031Y228172D01*
X135947Y228226D01*
X135861Y228276D01*
X135773Y228323D01*
X135683Y228367D01*
X135592Y228407D01*
X135499Y228443D01*
X135405Y228476D01*
X135309Y228505D01*
X135213Y228530D01*
X135116Y228551D01*
X135017Y228569D01*
X134919Y228582D01*
X134819Y228592D01*
X134720Y228598D01*
X134620Y228600D01*
X119380Y228600D02*
X119280Y228598D01*
X119181Y228592D01*
X119081Y228582D01*
X118983Y228569D01*
X118884Y228551D01*
X118787Y228530D01*
X118691Y228505D01*
X118595Y228476D01*
X118501Y228443D01*
X118408Y228407D01*
X118317Y228367D01*
X118227Y228323D01*
X118139Y228276D01*
X118053Y228226D01*
X117969Y228172D01*
X117887Y228115D01*
X117808Y228055D01*
X117730Y227991D01*
X117656Y227925D01*
X117584Y227856D01*
X117515Y227784D01*
X117449Y227710D01*
X117385Y227632D01*
X117325Y227553D01*
X117268Y227471D01*
X117214Y227387D01*
X117164Y227301D01*
X117117Y227213D01*
X117073Y227123D01*
X117033Y227032D01*
X116997Y226939D01*
X116964Y226845D01*
X116935Y226749D01*
X116910Y226653D01*
X116889Y226556D01*
X116871Y226457D01*
X116858Y226359D01*
X116848Y226259D01*
X116842Y226160D01*
X116840Y226060D01*
X119380Y177800D02*
X134620Y177800D01*
X116840Y180340D02*
X116840Y184150D01*
X118110Y185420D01*
X137160Y184150D02*
X137160Y180340D01*
X137160Y184150D02*
X135890Y185420D01*
X118110Y220980D02*
X116840Y222250D01*
X118110Y220980D02*
X118110Y185420D01*
X135890Y220980D02*
X137160Y222250D01*
X135890Y220980D02*
X135890Y185420D01*
X116840Y222250D02*
X116840Y226060D01*
X137160Y226060D02*
X137160Y222250D01*
X134620Y228600D02*
X119380Y228600D01*
D18*
X113538Y178308D02*
X104640Y178308D01*
X104640Y182757D01*
X106123Y184240D01*
X109089Y184240D01*
X110572Y182757D01*
X110572Y178308D01*
X110572Y181274D02*
X113538Y184240D01*
X113538Y187429D02*
X113538Y193361D01*
X113538Y187429D02*
X107606Y193361D01*
X106123Y193361D01*
X104640Y191878D01*
X104640Y188912D01*
X106123Y187429D01*
D19*
X127000Y230505D03*
X127000Y175895D03*
D10*
X482600Y121920D02*
X482602Y122020D01*
X482608Y122119D01*
X482618Y122219D01*
X482631Y122317D01*
X482649Y122416D01*
X482670Y122513D01*
X482695Y122609D01*
X482724Y122705D01*
X482757Y122799D01*
X482793Y122892D01*
X482833Y122983D01*
X482877Y123073D01*
X482924Y123161D01*
X482974Y123247D01*
X483028Y123331D01*
X483085Y123413D01*
X483145Y123492D01*
X483209Y123570D01*
X483275Y123644D01*
X483344Y123716D01*
X483416Y123785D01*
X483490Y123851D01*
X483568Y123915D01*
X483647Y123975D01*
X483729Y124032D01*
X483813Y124086D01*
X483899Y124136D01*
X483987Y124183D01*
X484077Y124227D01*
X484168Y124267D01*
X484261Y124303D01*
X484355Y124336D01*
X484451Y124365D01*
X484547Y124390D01*
X484644Y124411D01*
X484743Y124429D01*
X484841Y124442D01*
X484941Y124452D01*
X485040Y124458D01*
X485140Y124460D01*
X482600Y106680D02*
X482602Y106580D01*
X482608Y106481D01*
X482618Y106381D01*
X482631Y106283D01*
X482649Y106184D01*
X482670Y106087D01*
X482695Y105991D01*
X482724Y105895D01*
X482757Y105801D01*
X482793Y105708D01*
X482833Y105617D01*
X482877Y105527D01*
X482924Y105439D01*
X482974Y105353D01*
X483028Y105269D01*
X483085Y105187D01*
X483145Y105108D01*
X483209Y105030D01*
X483275Y104956D01*
X483344Y104884D01*
X483416Y104815D01*
X483490Y104749D01*
X483568Y104685D01*
X483647Y104625D01*
X483729Y104568D01*
X483813Y104514D01*
X483899Y104464D01*
X483987Y104417D01*
X484077Y104373D01*
X484168Y104333D01*
X484261Y104297D01*
X484355Y104264D01*
X484451Y104235D01*
X484547Y104210D01*
X484644Y104189D01*
X484743Y104171D01*
X484841Y104158D01*
X484941Y104148D01*
X485040Y104142D01*
X485140Y104140D01*
X530860Y104140D02*
X530960Y104142D01*
X531059Y104148D01*
X531159Y104158D01*
X531257Y104171D01*
X531356Y104189D01*
X531453Y104210D01*
X531549Y104235D01*
X531645Y104264D01*
X531739Y104297D01*
X531832Y104333D01*
X531923Y104373D01*
X532013Y104417D01*
X532101Y104464D01*
X532187Y104514D01*
X532271Y104568D01*
X532353Y104625D01*
X532432Y104685D01*
X532510Y104749D01*
X532584Y104815D01*
X532656Y104884D01*
X532725Y104956D01*
X532791Y105030D01*
X532855Y105108D01*
X532915Y105187D01*
X532972Y105269D01*
X533026Y105353D01*
X533076Y105439D01*
X533123Y105527D01*
X533167Y105617D01*
X533207Y105708D01*
X533243Y105801D01*
X533276Y105895D01*
X533305Y105991D01*
X533330Y106087D01*
X533351Y106184D01*
X533369Y106283D01*
X533382Y106381D01*
X533392Y106481D01*
X533398Y106580D01*
X533400Y106680D01*
X533400Y121920D02*
X533398Y122020D01*
X533392Y122119D01*
X533382Y122219D01*
X533369Y122317D01*
X533351Y122416D01*
X533330Y122513D01*
X533305Y122609D01*
X533276Y122705D01*
X533243Y122799D01*
X533207Y122892D01*
X533167Y122983D01*
X533123Y123073D01*
X533076Y123161D01*
X533026Y123247D01*
X532972Y123331D01*
X532915Y123413D01*
X532855Y123492D01*
X532791Y123570D01*
X532725Y123644D01*
X532656Y123716D01*
X532584Y123785D01*
X532510Y123851D01*
X532432Y123915D01*
X532353Y123975D01*
X532271Y124032D01*
X532187Y124086D01*
X532101Y124136D01*
X532013Y124183D01*
X531923Y124227D01*
X531832Y124267D01*
X531739Y124303D01*
X531645Y124336D01*
X531549Y124365D01*
X531453Y124390D01*
X531356Y124411D01*
X531257Y124429D01*
X531159Y124442D01*
X531059Y124452D01*
X530960Y124458D01*
X530860Y124460D01*
X482600Y121920D02*
X482600Y106680D01*
X485140Y124460D02*
X488950Y124460D01*
X490220Y123190D01*
X488950Y104140D02*
X485140Y104140D01*
X488950Y104140D02*
X490220Y105410D01*
X525780Y123190D02*
X527050Y124460D01*
X525780Y123190D02*
X490220Y123190D01*
X525780Y105410D02*
X527050Y104140D01*
X525780Y105410D02*
X490220Y105410D01*
X527050Y124460D02*
X530860Y124460D01*
X530860Y104140D02*
X527050Y104140D01*
X533400Y106680D02*
X533400Y121920D01*
D18*
X483108Y127762D02*
X483108Y136660D01*
X487557Y136660D01*
X489040Y135177D01*
X489040Y132211D01*
X487557Y130728D01*
X483108Y130728D01*
X486074Y130728D02*
X489040Y127762D01*
X496678Y127762D02*
X496678Y136660D01*
X492229Y132211D01*
X498161Y132211D01*
D20*
X535305Y114300D03*
X480695Y114300D03*
D10*
X107950Y127000D02*
X95250Y127000D01*
X107950Y127000D02*
X114300Y120650D01*
X114300Y107950D01*
X107950Y101600D01*
X88900Y107950D02*
X88900Y120650D01*
X95250Y127000D01*
X88900Y107950D02*
X95250Y101600D01*
X107950Y101600D01*
D13*
X96400Y142756D02*
X94493Y144663D01*
X90680Y144663D01*
X88773Y142756D01*
X88773Y140850D01*
X90680Y138943D01*
X94493Y138943D01*
X96400Y137036D01*
X96400Y135130D01*
X94493Y133223D01*
X90680Y133223D01*
X88773Y135130D01*
X100467Y131316D02*
X108093Y131316D01*
X112161Y142756D02*
X114068Y144663D01*
X117881Y144663D01*
X119787Y142756D01*
X119787Y140850D01*
X117881Y138943D01*
X115974Y138943D01*
X117881Y138943D02*
X119787Y137036D01*
X119787Y135130D01*
X117881Y133223D01*
X114068Y133223D01*
X112161Y135130D01*
X123855Y137036D02*
X123855Y144663D01*
X123855Y137036D02*
X127668Y133223D01*
X131481Y137036D01*
X131481Y144663D01*
D10*
X133350Y85090D02*
X133490Y85088D01*
X133630Y85082D01*
X133770Y85073D01*
X133909Y85059D01*
X134048Y85042D01*
X134186Y85021D01*
X134324Y84996D01*
X134461Y84967D01*
X134597Y84935D01*
X134732Y84898D01*
X134866Y84858D01*
X134999Y84815D01*
X135131Y84767D01*
X135262Y84717D01*
X135391Y84662D01*
X135518Y84604D01*
X135644Y84543D01*
X135768Y84478D01*
X135890Y84409D01*
X136010Y84338D01*
X136128Y84263D01*
X136245Y84185D01*
X136359Y84103D01*
X136470Y84019D01*
X136579Y83931D01*
X136686Y83841D01*
X136791Y83747D01*
X136892Y83651D01*
X136991Y83552D01*
X137087Y83451D01*
X137181Y83346D01*
X137271Y83239D01*
X137359Y83130D01*
X137443Y83019D01*
X137525Y82905D01*
X137603Y82788D01*
X137678Y82670D01*
X137749Y82550D01*
X137818Y82428D01*
X137883Y82304D01*
X137944Y82178D01*
X138002Y82051D01*
X138057Y81922D01*
X138107Y81791D01*
X138155Y81659D01*
X138198Y81526D01*
X138238Y81392D01*
X138275Y81257D01*
X138307Y81121D01*
X138336Y80984D01*
X138361Y80846D01*
X138382Y80708D01*
X138399Y80569D01*
X138413Y80430D01*
X138422Y80290D01*
X138428Y80150D01*
X138430Y80010D01*
X120650Y85090D02*
X120510Y85088D01*
X120370Y85082D01*
X120230Y85073D01*
X120091Y85059D01*
X119952Y85042D01*
X119814Y85021D01*
X119676Y84996D01*
X119539Y84967D01*
X119403Y84935D01*
X119268Y84898D01*
X119134Y84858D01*
X119001Y84815D01*
X118869Y84767D01*
X118738Y84717D01*
X118609Y84662D01*
X118482Y84604D01*
X118356Y84543D01*
X118232Y84478D01*
X118110Y84409D01*
X117990Y84338D01*
X117872Y84263D01*
X117755Y84185D01*
X117641Y84103D01*
X117530Y84019D01*
X117421Y83931D01*
X117314Y83841D01*
X117209Y83747D01*
X117108Y83651D01*
X117009Y83552D01*
X116913Y83451D01*
X116819Y83346D01*
X116729Y83239D01*
X116641Y83130D01*
X116557Y83019D01*
X116475Y82905D01*
X116397Y82788D01*
X116322Y82670D01*
X116251Y82550D01*
X116182Y82428D01*
X116117Y82304D01*
X116056Y82178D01*
X115998Y82051D01*
X115943Y81922D01*
X115893Y81791D01*
X115845Y81659D01*
X115802Y81526D01*
X115762Y81392D01*
X115725Y81257D01*
X115693Y81121D01*
X115664Y80984D01*
X115639Y80846D01*
X115618Y80708D01*
X115601Y80569D01*
X115587Y80430D01*
X115578Y80290D01*
X115572Y80150D01*
X115570Y80010D01*
X138430Y80010D02*
X138430Y46990D01*
X115570Y46990D02*
X115570Y80010D01*
X138430Y46990D02*
X138428Y46850D01*
X138422Y46710D01*
X138413Y46570D01*
X138399Y46431D01*
X138382Y46292D01*
X138361Y46154D01*
X138336Y46016D01*
X138307Y45879D01*
X138275Y45743D01*
X138238Y45608D01*
X138198Y45474D01*
X138155Y45341D01*
X138107Y45209D01*
X138057Y45078D01*
X138002Y44949D01*
X137944Y44822D01*
X137883Y44696D01*
X137818Y44572D01*
X137749Y44450D01*
X137678Y44330D01*
X137603Y44212D01*
X137525Y44095D01*
X137443Y43981D01*
X137359Y43870D01*
X137271Y43761D01*
X137181Y43654D01*
X137087Y43549D01*
X136991Y43448D01*
X136892Y43349D01*
X136791Y43253D01*
X136686Y43159D01*
X136579Y43069D01*
X136470Y42981D01*
X136359Y42897D01*
X136245Y42815D01*
X136128Y42737D01*
X136010Y42662D01*
X135890Y42591D01*
X135768Y42522D01*
X135644Y42457D01*
X135518Y42396D01*
X135391Y42338D01*
X135262Y42283D01*
X135131Y42233D01*
X134999Y42185D01*
X134866Y42142D01*
X134732Y42102D01*
X134597Y42065D01*
X134461Y42033D01*
X134324Y42004D01*
X134186Y41979D01*
X134048Y41958D01*
X133909Y41941D01*
X133770Y41927D01*
X133630Y41918D01*
X133490Y41912D01*
X133350Y41910D01*
X120650Y41910D02*
X120510Y41912D01*
X120370Y41918D01*
X120230Y41927D01*
X120091Y41941D01*
X119952Y41958D01*
X119814Y41979D01*
X119676Y42004D01*
X119539Y42033D01*
X119403Y42065D01*
X119268Y42102D01*
X119134Y42142D01*
X119001Y42185D01*
X118869Y42233D01*
X118738Y42283D01*
X118609Y42338D01*
X118482Y42396D01*
X118356Y42457D01*
X118232Y42522D01*
X118110Y42591D01*
X117990Y42662D01*
X117872Y42737D01*
X117755Y42815D01*
X117641Y42897D01*
X117530Y42981D01*
X117421Y43069D01*
X117314Y43159D01*
X117209Y43253D01*
X117108Y43349D01*
X117009Y43448D01*
X116913Y43549D01*
X116819Y43654D01*
X116729Y43761D01*
X116641Y43870D01*
X116557Y43981D01*
X116475Y44095D01*
X116397Y44212D01*
X116322Y44330D01*
X116251Y44450D01*
X116182Y44572D01*
X116117Y44696D01*
X116056Y44822D01*
X115998Y44949D01*
X115943Y45078D01*
X115893Y45209D01*
X115845Y45341D01*
X115802Y45474D01*
X115762Y45608D01*
X115725Y45743D01*
X115693Y45879D01*
X115664Y46016D01*
X115639Y46154D01*
X115618Y46292D01*
X115601Y46431D01*
X115587Y46570D01*
X115578Y46710D01*
X115572Y46850D01*
X115570Y46990D01*
D21*
X127000Y66548D02*
X134620Y66548D01*
X127000Y66548D02*
X119380Y66548D01*
X127000Y60198D02*
X134620Y60198D01*
X127000Y60198D02*
X119380Y60198D01*
D10*
X127000Y60198D02*
X127000Y50800D01*
X127000Y66548D02*
X127000Y76200D01*
D13*
X141595Y68057D02*
X143502Y69964D01*
X141595Y68057D02*
X141595Y64244D01*
X143502Y62337D01*
X151128Y62337D01*
X153035Y64244D01*
X153035Y68057D01*
X151128Y69964D01*
X145409Y74031D02*
X141595Y77844D01*
X153035Y77844D01*
X153035Y74031D02*
X153035Y81658D01*
D10*
X3810Y406400D02*
X3820Y407242D01*
X3851Y408083D01*
X3903Y408923D01*
X3975Y409761D01*
X4068Y410597D01*
X4181Y411431D01*
X4315Y412262D01*
X4469Y413090D01*
X4643Y413913D01*
X4838Y414732D01*
X5052Y415546D01*
X5287Y416354D01*
X5541Y417156D01*
X5814Y417952D01*
X6108Y418741D01*
X6420Y419522D01*
X6752Y420296D01*
X7102Y421061D01*
X7471Y421817D01*
X7859Y422564D01*
X8265Y423301D01*
X8688Y424029D01*
X9130Y424745D01*
X9589Y425451D01*
X10065Y426144D01*
X10558Y426827D01*
X11068Y427496D01*
X11593Y428153D01*
X12135Y428797D01*
X12693Y429428D01*
X13266Y430044D01*
X13853Y430647D01*
X14456Y431234D01*
X15072Y431807D01*
X15703Y432365D01*
X16347Y432907D01*
X17004Y433432D01*
X17673Y433942D01*
X18356Y434435D01*
X19049Y434911D01*
X19755Y435370D01*
X20471Y435812D01*
X21199Y436235D01*
X21936Y436641D01*
X22683Y437029D01*
X23439Y437398D01*
X24204Y437748D01*
X24978Y438080D01*
X25759Y438392D01*
X26548Y438686D01*
X27344Y438959D01*
X28146Y439213D01*
X28954Y439448D01*
X29768Y439662D01*
X30587Y439857D01*
X31410Y440031D01*
X32238Y440185D01*
X33069Y440319D01*
X33903Y440432D01*
X34739Y440525D01*
X35577Y440597D01*
X36417Y440649D01*
X37258Y440680D01*
X38100Y440690D01*
X38942Y440680D01*
X39783Y440649D01*
X40623Y440597D01*
X41461Y440525D01*
X42297Y440432D01*
X43131Y440319D01*
X43962Y440185D01*
X44790Y440031D01*
X45613Y439857D01*
X46432Y439662D01*
X47246Y439448D01*
X48054Y439213D01*
X48856Y438959D01*
X49652Y438686D01*
X50441Y438392D01*
X51222Y438080D01*
X51996Y437748D01*
X52761Y437398D01*
X53517Y437029D01*
X54264Y436641D01*
X55001Y436235D01*
X55729Y435812D01*
X56445Y435370D01*
X57151Y434911D01*
X57844Y434435D01*
X58527Y433942D01*
X59196Y433432D01*
X59853Y432907D01*
X60497Y432365D01*
X61128Y431807D01*
X61744Y431234D01*
X62347Y430647D01*
X62934Y430044D01*
X63507Y429428D01*
X64065Y428797D01*
X64607Y428153D01*
X65132Y427496D01*
X65642Y426827D01*
X66135Y426144D01*
X66611Y425451D01*
X67070Y424745D01*
X67512Y424029D01*
X67935Y423301D01*
X68341Y422564D01*
X68729Y421817D01*
X69098Y421061D01*
X69448Y420296D01*
X69780Y419522D01*
X70092Y418741D01*
X70386Y417952D01*
X70659Y417156D01*
X70913Y416354D01*
X71148Y415546D01*
X71362Y414732D01*
X71557Y413913D01*
X71731Y413090D01*
X71885Y412262D01*
X72019Y411431D01*
X72132Y410597D01*
X72225Y409761D01*
X72297Y408923D01*
X72349Y408083D01*
X72380Y407242D01*
X72390Y406400D01*
X72380Y405558D01*
X72349Y404717D01*
X72297Y403877D01*
X72225Y403039D01*
X72132Y402203D01*
X72019Y401369D01*
X71885Y400538D01*
X71731Y399710D01*
X71557Y398887D01*
X71362Y398068D01*
X71148Y397254D01*
X70913Y396446D01*
X70659Y395644D01*
X70386Y394848D01*
X70092Y394059D01*
X69780Y393278D01*
X69448Y392504D01*
X69098Y391739D01*
X68729Y390983D01*
X68341Y390236D01*
X67935Y389499D01*
X67512Y388771D01*
X67070Y388055D01*
X66611Y387349D01*
X66135Y386656D01*
X65642Y385973D01*
X65132Y385304D01*
X64607Y384647D01*
X64065Y384003D01*
X63507Y383372D01*
X62934Y382756D01*
X62347Y382153D01*
X61744Y381566D01*
X61128Y380993D01*
X60497Y380435D01*
X59853Y379893D01*
X59196Y379368D01*
X58527Y378858D01*
X57844Y378365D01*
X57151Y377889D01*
X56445Y377430D01*
X55729Y376988D01*
X55001Y376565D01*
X54264Y376159D01*
X53517Y375771D01*
X52761Y375402D01*
X51996Y375052D01*
X51222Y374720D01*
X50441Y374408D01*
X49652Y374114D01*
X48856Y373841D01*
X48054Y373587D01*
X47246Y373352D01*
X46432Y373138D01*
X45613Y372943D01*
X44790Y372769D01*
X43962Y372615D01*
X43131Y372481D01*
X42297Y372368D01*
X41461Y372275D01*
X40623Y372203D01*
X39783Y372151D01*
X38942Y372120D01*
X38100Y372110D01*
X37258Y372120D01*
X36417Y372151D01*
X35577Y372203D01*
X34739Y372275D01*
X33903Y372368D01*
X33069Y372481D01*
X32238Y372615D01*
X31410Y372769D01*
X30587Y372943D01*
X29768Y373138D01*
X28954Y373352D01*
X28146Y373587D01*
X27344Y373841D01*
X26548Y374114D01*
X25759Y374408D01*
X24978Y374720D01*
X24204Y375052D01*
X23439Y375402D01*
X22683Y375771D01*
X21936Y376159D01*
X21199Y376565D01*
X20471Y376988D01*
X19755Y377430D01*
X19049Y377889D01*
X18356Y378365D01*
X17673Y378858D01*
X17004Y379368D01*
X16347Y379893D01*
X15703Y380435D01*
X15072Y380993D01*
X14456Y381566D01*
X13853Y382153D01*
X13266Y382756D01*
X12693Y383372D01*
X12135Y384003D01*
X11593Y384647D01*
X11068Y385304D01*
X10558Y385973D01*
X10065Y386656D01*
X9589Y387349D01*
X9130Y388055D01*
X8688Y388771D01*
X8265Y389499D01*
X7859Y390236D01*
X7471Y390983D01*
X7102Y391739D01*
X6752Y392504D01*
X6420Y393278D01*
X6108Y394059D01*
X5814Y394848D01*
X5541Y395644D01*
X5287Y396446D01*
X5052Y397254D01*
X4838Y398068D01*
X4643Y398887D01*
X4469Y399710D01*
X4315Y400538D01*
X4181Y401369D01*
X4068Y402203D01*
X3975Y403039D01*
X3903Y403877D01*
X3851Y404717D01*
X3820Y405558D01*
X3810Y406400D01*
D16*
X21100Y406400D02*
X21105Y406817D01*
X21120Y407234D01*
X21146Y407651D01*
X21182Y408066D01*
X21228Y408481D01*
X21284Y408894D01*
X21350Y409306D01*
X21427Y409717D01*
X21513Y410125D01*
X21609Y410531D01*
X21716Y410934D01*
X21832Y411335D01*
X21958Y411733D01*
X22094Y412127D01*
X22239Y412518D01*
X22394Y412906D01*
X22558Y413289D01*
X22732Y413668D01*
X22915Y414043D01*
X23107Y414414D01*
X23309Y414779D01*
X23519Y415140D01*
X23737Y415495D01*
X23965Y415845D01*
X24201Y416189D01*
X24445Y416527D01*
X24698Y416859D01*
X24959Y417185D01*
X25227Y417504D01*
X25504Y417817D01*
X25788Y418122D01*
X26079Y418421D01*
X26378Y418712D01*
X26683Y418996D01*
X26996Y419273D01*
X27315Y419541D01*
X27641Y419802D01*
X27973Y420055D01*
X28311Y420299D01*
X28655Y420535D01*
X29005Y420763D01*
X29360Y420981D01*
X29721Y421191D01*
X30086Y421393D01*
X30457Y421585D01*
X30832Y421768D01*
X31211Y421942D01*
X31594Y422106D01*
X31982Y422261D01*
X32373Y422406D01*
X32767Y422542D01*
X33165Y422668D01*
X33566Y422784D01*
X33969Y422891D01*
X34375Y422987D01*
X34783Y423073D01*
X35194Y423150D01*
X35606Y423216D01*
X36019Y423272D01*
X36434Y423318D01*
X36849Y423354D01*
X37266Y423380D01*
X37683Y423395D01*
X38100Y423400D01*
X38517Y423395D01*
X38934Y423380D01*
X39351Y423354D01*
X39766Y423318D01*
X40181Y423272D01*
X40594Y423216D01*
X41006Y423150D01*
X41417Y423073D01*
X41825Y422987D01*
X42231Y422891D01*
X42634Y422784D01*
X43035Y422668D01*
X43433Y422542D01*
X43827Y422406D01*
X44218Y422261D01*
X44606Y422106D01*
X44989Y421942D01*
X45368Y421768D01*
X45743Y421585D01*
X46114Y421393D01*
X46479Y421191D01*
X46840Y420981D01*
X47195Y420763D01*
X47545Y420535D01*
X47889Y420299D01*
X48227Y420055D01*
X48559Y419802D01*
X48885Y419541D01*
X49204Y419273D01*
X49517Y418996D01*
X49822Y418712D01*
X50121Y418421D01*
X50412Y418122D01*
X50696Y417817D01*
X50973Y417504D01*
X51241Y417185D01*
X51502Y416859D01*
X51755Y416527D01*
X51999Y416189D01*
X52235Y415845D01*
X52463Y415495D01*
X52681Y415140D01*
X52891Y414779D01*
X53093Y414414D01*
X53285Y414043D01*
X53468Y413668D01*
X53642Y413289D01*
X53806Y412906D01*
X53961Y412518D01*
X54106Y412127D01*
X54242Y411733D01*
X54368Y411335D01*
X54484Y410934D01*
X54591Y410531D01*
X54687Y410125D01*
X54773Y409717D01*
X54850Y409306D01*
X54916Y408894D01*
X54972Y408481D01*
X55018Y408066D01*
X55054Y407651D01*
X55080Y407234D01*
X55095Y406817D01*
X55100Y406400D01*
X55095Y405983D01*
X55080Y405566D01*
X55054Y405149D01*
X55018Y404734D01*
X54972Y404319D01*
X54916Y403906D01*
X54850Y403494D01*
X54773Y403083D01*
X54687Y402675D01*
X54591Y402269D01*
X54484Y401866D01*
X54368Y401465D01*
X54242Y401067D01*
X54106Y400673D01*
X53961Y400282D01*
X53806Y399894D01*
X53642Y399511D01*
X53468Y399132D01*
X53285Y398757D01*
X53093Y398386D01*
X52891Y398021D01*
X52681Y397660D01*
X52463Y397305D01*
X52235Y396955D01*
X51999Y396611D01*
X51755Y396273D01*
X51502Y395941D01*
X51241Y395615D01*
X50973Y395296D01*
X50696Y394983D01*
X50412Y394678D01*
X50121Y394379D01*
X49822Y394088D01*
X49517Y393804D01*
X49204Y393527D01*
X48885Y393259D01*
X48559Y392998D01*
X48227Y392745D01*
X47889Y392501D01*
X47545Y392265D01*
X47195Y392037D01*
X46840Y391819D01*
X46479Y391609D01*
X46114Y391407D01*
X45743Y391215D01*
X45368Y391032D01*
X44989Y390858D01*
X44606Y390694D01*
X44218Y390539D01*
X43827Y390394D01*
X43433Y390258D01*
X43035Y390132D01*
X42634Y390016D01*
X42231Y389909D01*
X41825Y389813D01*
X41417Y389727D01*
X41006Y389650D01*
X40594Y389584D01*
X40181Y389528D01*
X39766Y389482D01*
X39351Y389446D01*
X38934Y389420D01*
X38517Y389405D01*
X38100Y389400D01*
X37683Y389405D01*
X37266Y389420D01*
X36849Y389446D01*
X36434Y389482D01*
X36019Y389528D01*
X35606Y389584D01*
X35194Y389650D01*
X34783Y389727D01*
X34375Y389813D01*
X33969Y389909D01*
X33566Y390016D01*
X33165Y390132D01*
X32767Y390258D01*
X32373Y390394D01*
X31982Y390539D01*
X31594Y390694D01*
X31211Y390858D01*
X30832Y391032D01*
X30457Y391215D01*
X30086Y391407D01*
X29721Y391609D01*
X29360Y391819D01*
X29005Y392037D01*
X28655Y392265D01*
X28311Y392501D01*
X27973Y392745D01*
X27641Y392998D01*
X27315Y393259D01*
X26996Y393527D01*
X26683Y393804D01*
X26378Y394088D01*
X26079Y394379D01*
X25788Y394678D01*
X25504Y394983D01*
X25227Y395296D01*
X24959Y395615D01*
X24698Y395941D01*
X24445Y396273D01*
X24201Y396611D01*
X23965Y396955D01*
X23737Y397305D01*
X23519Y397660D01*
X23309Y398021D01*
X23107Y398386D01*
X22915Y398757D01*
X22732Y399132D01*
X22558Y399511D01*
X22394Y399894D01*
X22239Y400282D01*
X22094Y400673D01*
X21958Y401067D01*
X21832Y401465D01*
X21716Y401866D01*
X21609Y402269D01*
X21513Y402675D01*
X21427Y403083D01*
X21350Y403494D01*
X21284Y403906D01*
X21228Y404319D01*
X21182Y404734D01*
X21146Y405149D01*
X21120Y405566D01*
X21105Y405983D01*
X21100Y406400D01*
D10*
X3810Y203200D02*
X3820Y204042D01*
X3851Y204883D01*
X3903Y205723D01*
X3975Y206561D01*
X4068Y207397D01*
X4181Y208231D01*
X4315Y209062D01*
X4469Y209890D01*
X4643Y210713D01*
X4838Y211532D01*
X5052Y212346D01*
X5287Y213154D01*
X5541Y213956D01*
X5814Y214752D01*
X6108Y215541D01*
X6420Y216322D01*
X6752Y217096D01*
X7102Y217861D01*
X7471Y218617D01*
X7859Y219364D01*
X8265Y220101D01*
X8688Y220829D01*
X9130Y221545D01*
X9589Y222251D01*
X10065Y222944D01*
X10558Y223627D01*
X11068Y224296D01*
X11593Y224953D01*
X12135Y225597D01*
X12693Y226228D01*
X13266Y226844D01*
X13853Y227447D01*
X14456Y228034D01*
X15072Y228607D01*
X15703Y229165D01*
X16347Y229707D01*
X17004Y230232D01*
X17673Y230742D01*
X18356Y231235D01*
X19049Y231711D01*
X19755Y232170D01*
X20471Y232612D01*
X21199Y233035D01*
X21936Y233441D01*
X22683Y233829D01*
X23439Y234198D01*
X24204Y234548D01*
X24978Y234880D01*
X25759Y235192D01*
X26548Y235486D01*
X27344Y235759D01*
X28146Y236013D01*
X28954Y236248D01*
X29768Y236462D01*
X30587Y236657D01*
X31410Y236831D01*
X32238Y236985D01*
X33069Y237119D01*
X33903Y237232D01*
X34739Y237325D01*
X35577Y237397D01*
X36417Y237449D01*
X37258Y237480D01*
X38100Y237490D01*
X38942Y237480D01*
X39783Y237449D01*
X40623Y237397D01*
X41461Y237325D01*
X42297Y237232D01*
X43131Y237119D01*
X43962Y236985D01*
X44790Y236831D01*
X45613Y236657D01*
X46432Y236462D01*
X47246Y236248D01*
X48054Y236013D01*
X48856Y235759D01*
X49652Y235486D01*
X50441Y235192D01*
X51222Y234880D01*
X51996Y234548D01*
X52761Y234198D01*
X53517Y233829D01*
X54264Y233441D01*
X55001Y233035D01*
X55729Y232612D01*
X56445Y232170D01*
X57151Y231711D01*
X57844Y231235D01*
X58527Y230742D01*
X59196Y230232D01*
X59853Y229707D01*
X60497Y229165D01*
X61128Y228607D01*
X61744Y228034D01*
X62347Y227447D01*
X62934Y226844D01*
X63507Y226228D01*
X64065Y225597D01*
X64607Y224953D01*
X65132Y224296D01*
X65642Y223627D01*
X66135Y222944D01*
X66611Y222251D01*
X67070Y221545D01*
X67512Y220829D01*
X67935Y220101D01*
X68341Y219364D01*
X68729Y218617D01*
X69098Y217861D01*
X69448Y217096D01*
X69780Y216322D01*
X70092Y215541D01*
X70386Y214752D01*
X70659Y213956D01*
X70913Y213154D01*
X71148Y212346D01*
X71362Y211532D01*
X71557Y210713D01*
X71731Y209890D01*
X71885Y209062D01*
X72019Y208231D01*
X72132Y207397D01*
X72225Y206561D01*
X72297Y205723D01*
X72349Y204883D01*
X72380Y204042D01*
X72390Y203200D01*
X72380Y202358D01*
X72349Y201517D01*
X72297Y200677D01*
X72225Y199839D01*
X72132Y199003D01*
X72019Y198169D01*
X71885Y197338D01*
X71731Y196510D01*
X71557Y195687D01*
X71362Y194868D01*
X71148Y194054D01*
X70913Y193246D01*
X70659Y192444D01*
X70386Y191648D01*
X70092Y190859D01*
X69780Y190078D01*
X69448Y189304D01*
X69098Y188539D01*
X68729Y187783D01*
X68341Y187036D01*
X67935Y186299D01*
X67512Y185571D01*
X67070Y184855D01*
X66611Y184149D01*
X66135Y183456D01*
X65642Y182773D01*
X65132Y182104D01*
X64607Y181447D01*
X64065Y180803D01*
X63507Y180172D01*
X62934Y179556D01*
X62347Y178953D01*
X61744Y178366D01*
X61128Y177793D01*
X60497Y177235D01*
X59853Y176693D01*
X59196Y176168D01*
X58527Y175658D01*
X57844Y175165D01*
X57151Y174689D01*
X56445Y174230D01*
X55729Y173788D01*
X55001Y173365D01*
X54264Y172959D01*
X53517Y172571D01*
X52761Y172202D01*
X51996Y171852D01*
X51222Y171520D01*
X50441Y171208D01*
X49652Y170914D01*
X48856Y170641D01*
X48054Y170387D01*
X47246Y170152D01*
X46432Y169938D01*
X45613Y169743D01*
X44790Y169569D01*
X43962Y169415D01*
X43131Y169281D01*
X42297Y169168D01*
X41461Y169075D01*
X40623Y169003D01*
X39783Y168951D01*
X38942Y168920D01*
X38100Y168910D01*
X37258Y168920D01*
X36417Y168951D01*
X35577Y169003D01*
X34739Y169075D01*
X33903Y169168D01*
X33069Y169281D01*
X32238Y169415D01*
X31410Y169569D01*
X30587Y169743D01*
X29768Y169938D01*
X28954Y170152D01*
X28146Y170387D01*
X27344Y170641D01*
X26548Y170914D01*
X25759Y171208D01*
X24978Y171520D01*
X24204Y171852D01*
X23439Y172202D01*
X22683Y172571D01*
X21936Y172959D01*
X21199Y173365D01*
X20471Y173788D01*
X19755Y174230D01*
X19049Y174689D01*
X18356Y175165D01*
X17673Y175658D01*
X17004Y176168D01*
X16347Y176693D01*
X15703Y177235D01*
X15072Y177793D01*
X14456Y178366D01*
X13853Y178953D01*
X13266Y179556D01*
X12693Y180172D01*
X12135Y180803D01*
X11593Y181447D01*
X11068Y182104D01*
X10558Y182773D01*
X10065Y183456D01*
X9589Y184149D01*
X9130Y184855D01*
X8688Y185571D01*
X8265Y186299D01*
X7859Y187036D01*
X7471Y187783D01*
X7102Y188539D01*
X6752Y189304D01*
X6420Y190078D01*
X6108Y190859D01*
X5814Y191648D01*
X5541Y192444D01*
X5287Y193246D01*
X5052Y194054D01*
X4838Y194868D01*
X4643Y195687D01*
X4469Y196510D01*
X4315Y197338D01*
X4181Y198169D01*
X4068Y199003D01*
X3975Y199839D01*
X3903Y200677D01*
X3851Y201517D01*
X3820Y202358D01*
X3810Y203200D01*
D16*
X21100Y203200D02*
X21105Y203617D01*
X21120Y204034D01*
X21146Y204451D01*
X21182Y204866D01*
X21228Y205281D01*
X21284Y205694D01*
X21350Y206106D01*
X21427Y206517D01*
X21513Y206925D01*
X21609Y207331D01*
X21716Y207734D01*
X21832Y208135D01*
X21958Y208533D01*
X22094Y208927D01*
X22239Y209318D01*
X22394Y209706D01*
X22558Y210089D01*
X22732Y210468D01*
X22915Y210843D01*
X23107Y211214D01*
X23309Y211579D01*
X23519Y211940D01*
X23737Y212295D01*
X23965Y212645D01*
X24201Y212989D01*
X24445Y213327D01*
X24698Y213659D01*
X24959Y213985D01*
X25227Y214304D01*
X25504Y214617D01*
X25788Y214922D01*
X26079Y215221D01*
X26378Y215512D01*
X26683Y215796D01*
X26996Y216073D01*
X27315Y216341D01*
X27641Y216602D01*
X27973Y216855D01*
X28311Y217099D01*
X28655Y217335D01*
X29005Y217563D01*
X29360Y217781D01*
X29721Y217991D01*
X30086Y218193D01*
X30457Y218385D01*
X30832Y218568D01*
X31211Y218742D01*
X31594Y218906D01*
X31982Y219061D01*
X32373Y219206D01*
X32767Y219342D01*
X33165Y219468D01*
X33566Y219584D01*
X33969Y219691D01*
X34375Y219787D01*
X34783Y219873D01*
X35194Y219950D01*
X35606Y220016D01*
X36019Y220072D01*
X36434Y220118D01*
X36849Y220154D01*
X37266Y220180D01*
X37683Y220195D01*
X38100Y220200D01*
X38517Y220195D01*
X38934Y220180D01*
X39351Y220154D01*
X39766Y220118D01*
X40181Y220072D01*
X40594Y220016D01*
X41006Y219950D01*
X41417Y219873D01*
X41825Y219787D01*
X42231Y219691D01*
X42634Y219584D01*
X43035Y219468D01*
X43433Y219342D01*
X43827Y219206D01*
X44218Y219061D01*
X44606Y218906D01*
X44989Y218742D01*
X45368Y218568D01*
X45743Y218385D01*
X46114Y218193D01*
X46479Y217991D01*
X46840Y217781D01*
X47195Y217563D01*
X47545Y217335D01*
X47889Y217099D01*
X48227Y216855D01*
X48559Y216602D01*
X48885Y216341D01*
X49204Y216073D01*
X49517Y215796D01*
X49822Y215512D01*
X50121Y215221D01*
X50412Y214922D01*
X50696Y214617D01*
X50973Y214304D01*
X51241Y213985D01*
X51502Y213659D01*
X51755Y213327D01*
X51999Y212989D01*
X52235Y212645D01*
X52463Y212295D01*
X52681Y211940D01*
X52891Y211579D01*
X53093Y211214D01*
X53285Y210843D01*
X53468Y210468D01*
X53642Y210089D01*
X53806Y209706D01*
X53961Y209318D01*
X54106Y208927D01*
X54242Y208533D01*
X54368Y208135D01*
X54484Y207734D01*
X54591Y207331D01*
X54687Y206925D01*
X54773Y206517D01*
X54850Y206106D01*
X54916Y205694D01*
X54972Y205281D01*
X55018Y204866D01*
X55054Y204451D01*
X55080Y204034D01*
X55095Y203617D01*
X55100Y203200D01*
X55095Y202783D01*
X55080Y202366D01*
X55054Y201949D01*
X55018Y201534D01*
X54972Y201119D01*
X54916Y200706D01*
X54850Y200294D01*
X54773Y199883D01*
X54687Y199475D01*
X54591Y199069D01*
X54484Y198666D01*
X54368Y198265D01*
X54242Y197867D01*
X54106Y197473D01*
X53961Y197082D01*
X53806Y196694D01*
X53642Y196311D01*
X53468Y195932D01*
X53285Y195557D01*
X53093Y195186D01*
X52891Y194821D01*
X52681Y194460D01*
X52463Y194105D01*
X52235Y193755D01*
X51999Y193411D01*
X51755Y193073D01*
X51502Y192741D01*
X51241Y192415D01*
X50973Y192096D01*
X50696Y191783D01*
X50412Y191478D01*
X50121Y191179D01*
X49822Y190888D01*
X49517Y190604D01*
X49204Y190327D01*
X48885Y190059D01*
X48559Y189798D01*
X48227Y189545D01*
X47889Y189301D01*
X47545Y189065D01*
X47195Y188837D01*
X46840Y188619D01*
X46479Y188409D01*
X46114Y188207D01*
X45743Y188015D01*
X45368Y187832D01*
X44989Y187658D01*
X44606Y187494D01*
X44218Y187339D01*
X43827Y187194D01*
X43433Y187058D01*
X43035Y186932D01*
X42634Y186816D01*
X42231Y186709D01*
X41825Y186613D01*
X41417Y186527D01*
X41006Y186450D01*
X40594Y186384D01*
X40181Y186328D01*
X39766Y186282D01*
X39351Y186246D01*
X38934Y186220D01*
X38517Y186205D01*
X38100Y186200D01*
X37683Y186205D01*
X37266Y186220D01*
X36849Y186246D01*
X36434Y186282D01*
X36019Y186328D01*
X35606Y186384D01*
X35194Y186450D01*
X34783Y186527D01*
X34375Y186613D01*
X33969Y186709D01*
X33566Y186816D01*
X33165Y186932D01*
X32767Y187058D01*
X32373Y187194D01*
X31982Y187339D01*
X31594Y187494D01*
X31211Y187658D01*
X30832Y187832D01*
X30457Y188015D01*
X30086Y188207D01*
X29721Y188409D01*
X29360Y188619D01*
X29005Y188837D01*
X28655Y189065D01*
X28311Y189301D01*
X27973Y189545D01*
X27641Y189798D01*
X27315Y190059D01*
X26996Y190327D01*
X26683Y190604D01*
X26378Y190888D01*
X26079Y191179D01*
X25788Y191478D01*
X25504Y191783D01*
X25227Y192096D01*
X24959Y192415D01*
X24698Y192741D01*
X24445Y193073D01*
X24201Y193411D01*
X23965Y193755D01*
X23737Y194105D01*
X23519Y194460D01*
X23309Y194821D01*
X23107Y195186D01*
X22915Y195557D01*
X22732Y195932D01*
X22558Y196311D01*
X22394Y196694D01*
X22239Y197082D01*
X22094Y197473D01*
X21958Y197867D01*
X21832Y198265D01*
X21716Y198666D01*
X21609Y199069D01*
X21513Y199475D01*
X21427Y199883D01*
X21350Y200294D01*
X21284Y200706D01*
X21228Y201119D01*
X21182Y201534D01*
X21146Y201949D01*
X21120Y202366D01*
X21105Y202783D01*
X21100Y203200D01*
D10*
X740410Y406400D02*
X740420Y407242D01*
X740451Y408083D01*
X740503Y408923D01*
X740575Y409761D01*
X740668Y410597D01*
X740781Y411431D01*
X740915Y412262D01*
X741069Y413090D01*
X741243Y413913D01*
X741438Y414732D01*
X741652Y415546D01*
X741887Y416354D01*
X742141Y417156D01*
X742414Y417952D01*
X742708Y418741D01*
X743020Y419522D01*
X743352Y420296D01*
X743702Y421061D01*
X744071Y421817D01*
X744459Y422564D01*
X744865Y423301D01*
X745288Y424029D01*
X745730Y424745D01*
X746189Y425451D01*
X746665Y426144D01*
X747158Y426827D01*
X747668Y427496D01*
X748193Y428153D01*
X748735Y428797D01*
X749293Y429428D01*
X749866Y430044D01*
X750453Y430647D01*
X751056Y431234D01*
X751672Y431807D01*
X752303Y432365D01*
X752947Y432907D01*
X753604Y433432D01*
X754273Y433942D01*
X754956Y434435D01*
X755649Y434911D01*
X756355Y435370D01*
X757071Y435812D01*
X757799Y436235D01*
X758536Y436641D01*
X759283Y437029D01*
X760039Y437398D01*
X760804Y437748D01*
X761578Y438080D01*
X762359Y438392D01*
X763148Y438686D01*
X763944Y438959D01*
X764746Y439213D01*
X765554Y439448D01*
X766368Y439662D01*
X767187Y439857D01*
X768010Y440031D01*
X768838Y440185D01*
X769669Y440319D01*
X770503Y440432D01*
X771339Y440525D01*
X772177Y440597D01*
X773017Y440649D01*
X773858Y440680D01*
X774700Y440690D01*
X775542Y440680D01*
X776383Y440649D01*
X777223Y440597D01*
X778061Y440525D01*
X778897Y440432D01*
X779731Y440319D01*
X780562Y440185D01*
X781390Y440031D01*
X782213Y439857D01*
X783032Y439662D01*
X783846Y439448D01*
X784654Y439213D01*
X785456Y438959D01*
X786252Y438686D01*
X787041Y438392D01*
X787822Y438080D01*
X788596Y437748D01*
X789361Y437398D01*
X790117Y437029D01*
X790864Y436641D01*
X791601Y436235D01*
X792329Y435812D01*
X793045Y435370D01*
X793751Y434911D01*
X794444Y434435D01*
X795127Y433942D01*
X795796Y433432D01*
X796453Y432907D01*
X797097Y432365D01*
X797728Y431807D01*
X798344Y431234D01*
X798947Y430647D01*
X799534Y430044D01*
X800107Y429428D01*
X800665Y428797D01*
X801207Y428153D01*
X801732Y427496D01*
X802242Y426827D01*
X802735Y426144D01*
X803211Y425451D01*
X803670Y424745D01*
X804112Y424029D01*
X804535Y423301D01*
X804941Y422564D01*
X805329Y421817D01*
X805698Y421061D01*
X806048Y420296D01*
X806380Y419522D01*
X806692Y418741D01*
X806986Y417952D01*
X807259Y417156D01*
X807513Y416354D01*
X807748Y415546D01*
X807962Y414732D01*
X808157Y413913D01*
X808331Y413090D01*
X808485Y412262D01*
X808619Y411431D01*
X808732Y410597D01*
X808825Y409761D01*
X808897Y408923D01*
X808949Y408083D01*
X808980Y407242D01*
X808990Y406400D01*
X808980Y405558D01*
X808949Y404717D01*
X808897Y403877D01*
X808825Y403039D01*
X808732Y402203D01*
X808619Y401369D01*
X808485Y400538D01*
X808331Y399710D01*
X808157Y398887D01*
X807962Y398068D01*
X807748Y397254D01*
X807513Y396446D01*
X807259Y395644D01*
X806986Y394848D01*
X806692Y394059D01*
X806380Y393278D01*
X806048Y392504D01*
X805698Y391739D01*
X805329Y390983D01*
X804941Y390236D01*
X804535Y389499D01*
X804112Y388771D01*
X803670Y388055D01*
X803211Y387349D01*
X802735Y386656D01*
X802242Y385973D01*
X801732Y385304D01*
X801207Y384647D01*
X800665Y384003D01*
X800107Y383372D01*
X799534Y382756D01*
X798947Y382153D01*
X798344Y381566D01*
X797728Y380993D01*
X797097Y380435D01*
X796453Y379893D01*
X795796Y379368D01*
X795127Y378858D01*
X794444Y378365D01*
X793751Y377889D01*
X793045Y377430D01*
X792329Y376988D01*
X791601Y376565D01*
X790864Y376159D01*
X790117Y375771D01*
X789361Y375402D01*
X788596Y375052D01*
X787822Y374720D01*
X787041Y374408D01*
X786252Y374114D01*
X785456Y373841D01*
X784654Y373587D01*
X783846Y373352D01*
X783032Y373138D01*
X782213Y372943D01*
X781390Y372769D01*
X780562Y372615D01*
X779731Y372481D01*
X778897Y372368D01*
X778061Y372275D01*
X777223Y372203D01*
X776383Y372151D01*
X775542Y372120D01*
X774700Y372110D01*
X773858Y372120D01*
X773017Y372151D01*
X772177Y372203D01*
X771339Y372275D01*
X770503Y372368D01*
X769669Y372481D01*
X768838Y372615D01*
X768010Y372769D01*
X767187Y372943D01*
X766368Y373138D01*
X765554Y373352D01*
X764746Y373587D01*
X763944Y373841D01*
X763148Y374114D01*
X762359Y374408D01*
X761578Y374720D01*
X760804Y375052D01*
X760039Y375402D01*
X759283Y375771D01*
X758536Y376159D01*
X757799Y376565D01*
X757071Y376988D01*
X756355Y377430D01*
X755649Y377889D01*
X754956Y378365D01*
X754273Y378858D01*
X753604Y379368D01*
X752947Y379893D01*
X752303Y380435D01*
X751672Y380993D01*
X751056Y381566D01*
X750453Y382153D01*
X749866Y382756D01*
X749293Y383372D01*
X748735Y384003D01*
X748193Y384647D01*
X747668Y385304D01*
X747158Y385973D01*
X746665Y386656D01*
X746189Y387349D01*
X745730Y388055D01*
X745288Y388771D01*
X744865Y389499D01*
X744459Y390236D01*
X744071Y390983D01*
X743702Y391739D01*
X743352Y392504D01*
X743020Y393278D01*
X742708Y394059D01*
X742414Y394848D01*
X742141Y395644D01*
X741887Y396446D01*
X741652Y397254D01*
X741438Y398068D01*
X741243Y398887D01*
X741069Y399710D01*
X740915Y400538D01*
X740781Y401369D01*
X740668Y402203D01*
X740575Y403039D01*
X740503Y403877D01*
X740451Y404717D01*
X740420Y405558D01*
X740410Y406400D01*
D16*
X757700Y406400D02*
X757705Y406817D01*
X757720Y407234D01*
X757746Y407651D01*
X757782Y408066D01*
X757828Y408481D01*
X757884Y408894D01*
X757950Y409306D01*
X758027Y409717D01*
X758113Y410125D01*
X758209Y410531D01*
X758316Y410934D01*
X758432Y411335D01*
X758558Y411733D01*
X758694Y412127D01*
X758839Y412518D01*
X758994Y412906D01*
X759158Y413289D01*
X759332Y413668D01*
X759515Y414043D01*
X759707Y414414D01*
X759909Y414779D01*
X760119Y415140D01*
X760337Y415495D01*
X760565Y415845D01*
X760801Y416189D01*
X761045Y416527D01*
X761298Y416859D01*
X761559Y417185D01*
X761827Y417504D01*
X762104Y417817D01*
X762388Y418122D01*
X762679Y418421D01*
X762978Y418712D01*
X763283Y418996D01*
X763596Y419273D01*
X763915Y419541D01*
X764241Y419802D01*
X764573Y420055D01*
X764911Y420299D01*
X765255Y420535D01*
X765605Y420763D01*
X765960Y420981D01*
X766321Y421191D01*
X766686Y421393D01*
X767057Y421585D01*
X767432Y421768D01*
X767811Y421942D01*
X768194Y422106D01*
X768582Y422261D01*
X768973Y422406D01*
X769367Y422542D01*
X769765Y422668D01*
X770166Y422784D01*
X770569Y422891D01*
X770975Y422987D01*
X771383Y423073D01*
X771794Y423150D01*
X772206Y423216D01*
X772619Y423272D01*
X773034Y423318D01*
X773449Y423354D01*
X773866Y423380D01*
X774283Y423395D01*
X774700Y423400D01*
X775117Y423395D01*
X775534Y423380D01*
X775951Y423354D01*
X776366Y423318D01*
X776781Y423272D01*
X777194Y423216D01*
X777606Y423150D01*
X778017Y423073D01*
X778425Y422987D01*
X778831Y422891D01*
X779234Y422784D01*
X779635Y422668D01*
X780033Y422542D01*
X780427Y422406D01*
X780818Y422261D01*
X781206Y422106D01*
X781589Y421942D01*
X781968Y421768D01*
X782343Y421585D01*
X782714Y421393D01*
X783079Y421191D01*
X783440Y420981D01*
X783795Y420763D01*
X784145Y420535D01*
X784489Y420299D01*
X784827Y420055D01*
X785159Y419802D01*
X785485Y419541D01*
X785804Y419273D01*
X786117Y418996D01*
X786422Y418712D01*
X786721Y418421D01*
X787012Y418122D01*
X787296Y417817D01*
X787573Y417504D01*
X787841Y417185D01*
X788102Y416859D01*
X788355Y416527D01*
X788599Y416189D01*
X788835Y415845D01*
X789063Y415495D01*
X789281Y415140D01*
X789491Y414779D01*
X789693Y414414D01*
X789885Y414043D01*
X790068Y413668D01*
X790242Y413289D01*
X790406Y412906D01*
X790561Y412518D01*
X790706Y412127D01*
X790842Y411733D01*
X790968Y411335D01*
X791084Y410934D01*
X791191Y410531D01*
X791287Y410125D01*
X791373Y409717D01*
X791450Y409306D01*
X791516Y408894D01*
X791572Y408481D01*
X791618Y408066D01*
X791654Y407651D01*
X791680Y407234D01*
X791695Y406817D01*
X791700Y406400D01*
X791695Y405983D01*
X791680Y405566D01*
X791654Y405149D01*
X791618Y404734D01*
X791572Y404319D01*
X791516Y403906D01*
X791450Y403494D01*
X791373Y403083D01*
X791287Y402675D01*
X791191Y402269D01*
X791084Y401866D01*
X790968Y401465D01*
X790842Y401067D01*
X790706Y400673D01*
X790561Y400282D01*
X790406Y399894D01*
X790242Y399511D01*
X790068Y399132D01*
X789885Y398757D01*
X789693Y398386D01*
X789491Y398021D01*
X789281Y397660D01*
X789063Y397305D01*
X788835Y396955D01*
X788599Y396611D01*
X788355Y396273D01*
X788102Y395941D01*
X787841Y395615D01*
X787573Y395296D01*
X787296Y394983D01*
X787012Y394678D01*
X786721Y394379D01*
X786422Y394088D01*
X786117Y393804D01*
X785804Y393527D01*
X785485Y393259D01*
X785159Y392998D01*
X784827Y392745D01*
X784489Y392501D01*
X784145Y392265D01*
X783795Y392037D01*
X783440Y391819D01*
X783079Y391609D01*
X782714Y391407D01*
X782343Y391215D01*
X781968Y391032D01*
X781589Y390858D01*
X781206Y390694D01*
X780818Y390539D01*
X780427Y390394D01*
X780033Y390258D01*
X779635Y390132D01*
X779234Y390016D01*
X778831Y389909D01*
X778425Y389813D01*
X778017Y389727D01*
X777606Y389650D01*
X777194Y389584D01*
X776781Y389528D01*
X776366Y389482D01*
X775951Y389446D01*
X775534Y389420D01*
X775117Y389405D01*
X774700Y389400D01*
X774283Y389405D01*
X773866Y389420D01*
X773449Y389446D01*
X773034Y389482D01*
X772619Y389528D01*
X772206Y389584D01*
X771794Y389650D01*
X771383Y389727D01*
X770975Y389813D01*
X770569Y389909D01*
X770166Y390016D01*
X769765Y390132D01*
X769367Y390258D01*
X768973Y390394D01*
X768582Y390539D01*
X768194Y390694D01*
X767811Y390858D01*
X767432Y391032D01*
X767057Y391215D01*
X766686Y391407D01*
X766321Y391609D01*
X765960Y391819D01*
X765605Y392037D01*
X765255Y392265D01*
X764911Y392501D01*
X764573Y392745D01*
X764241Y392998D01*
X763915Y393259D01*
X763596Y393527D01*
X763283Y393804D01*
X762978Y394088D01*
X762679Y394379D01*
X762388Y394678D01*
X762104Y394983D01*
X761827Y395296D01*
X761559Y395615D01*
X761298Y395941D01*
X761045Y396273D01*
X760801Y396611D01*
X760565Y396955D01*
X760337Y397305D01*
X760119Y397660D01*
X759909Y398021D01*
X759707Y398386D01*
X759515Y398757D01*
X759332Y399132D01*
X759158Y399511D01*
X758994Y399894D01*
X758839Y400282D01*
X758694Y400673D01*
X758558Y401067D01*
X758432Y401465D01*
X758316Y401866D01*
X758209Y402269D01*
X758113Y402675D01*
X758027Y403083D01*
X757950Y403494D01*
X757884Y403906D01*
X757828Y404319D01*
X757782Y404734D01*
X757746Y405149D01*
X757720Y405566D01*
X757705Y405983D01*
X757700Y406400D01*
D10*
X715010Y152400D02*
X715020Y153242D01*
X715051Y154083D01*
X715103Y154923D01*
X715175Y155761D01*
X715268Y156597D01*
X715381Y157431D01*
X715515Y158262D01*
X715669Y159090D01*
X715843Y159913D01*
X716038Y160732D01*
X716252Y161546D01*
X716487Y162354D01*
X716741Y163156D01*
X717014Y163952D01*
X717308Y164741D01*
X717620Y165522D01*
X717952Y166296D01*
X718302Y167061D01*
X718671Y167817D01*
X719059Y168564D01*
X719465Y169301D01*
X719888Y170029D01*
X720330Y170745D01*
X720789Y171451D01*
X721265Y172144D01*
X721758Y172827D01*
X722268Y173496D01*
X722793Y174153D01*
X723335Y174797D01*
X723893Y175428D01*
X724466Y176044D01*
X725053Y176647D01*
X725656Y177234D01*
X726272Y177807D01*
X726903Y178365D01*
X727547Y178907D01*
X728204Y179432D01*
X728873Y179942D01*
X729556Y180435D01*
X730249Y180911D01*
X730955Y181370D01*
X731671Y181812D01*
X732399Y182235D01*
X733136Y182641D01*
X733883Y183029D01*
X734639Y183398D01*
X735404Y183748D01*
X736178Y184080D01*
X736959Y184392D01*
X737748Y184686D01*
X738544Y184959D01*
X739346Y185213D01*
X740154Y185448D01*
X740968Y185662D01*
X741787Y185857D01*
X742610Y186031D01*
X743438Y186185D01*
X744269Y186319D01*
X745103Y186432D01*
X745939Y186525D01*
X746777Y186597D01*
X747617Y186649D01*
X748458Y186680D01*
X749300Y186690D01*
X750142Y186680D01*
X750983Y186649D01*
X751823Y186597D01*
X752661Y186525D01*
X753497Y186432D01*
X754331Y186319D01*
X755162Y186185D01*
X755990Y186031D01*
X756813Y185857D01*
X757632Y185662D01*
X758446Y185448D01*
X759254Y185213D01*
X760056Y184959D01*
X760852Y184686D01*
X761641Y184392D01*
X762422Y184080D01*
X763196Y183748D01*
X763961Y183398D01*
X764717Y183029D01*
X765464Y182641D01*
X766201Y182235D01*
X766929Y181812D01*
X767645Y181370D01*
X768351Y180911D01*
X769044Y180435D01*
X769727Y179942D01*
X770396Y179432D01*
X771053Y178907D01*
X771697Y178365D01*
X772328Y177807D01*
X772944Y177234D01*
X773547Y176647D01*
X774134Y176044D01*
X774707Y175428D01*
X775265Y174797D01*
X775807Y174153D01*
X776332Y173496D01*
X776842Y172827D01*
X777335Y172144D01*
X777811Y171451D01*
X778270Y170745D01*
X778712Y170029D01*
X779135Y169301D01*
X779541Y168564D01*
X779929Y167817D01*
X780298Y167061D01*
X780648Y166296D01*
X780980Y165522D01*
X781292Y164741D01*
X781586Y163952D01*
X781859Y163156D01*
X782113Y162354D01*
X782348Y161546D01*
X782562Y160732D01*
X782757Y159913D01*
X782931Y159090D01*
X783085Y158262D01*
X783219Y157431D01*
X783332Y156597D01*
X783425Y155761D01*
X783497Y154923D01*
X783549Y154083D01*
X783580Y153242D01*
X783590Y152400D01*
X783580Y151558D01*
X783549Y150717D01*
X783497Y149877D01*
X783425Y149039D01*
X783332Y148203D01*
X783219Y147369D01*
X783085Y146538D01*
X782931Y145710D01*
X782757Y144887D01*
X782562Y144068D01*
X782348Y143254D01*
X782113Y142446D01*
X781859Y141644D01*
X781586Y140848D01*
X781292Y140059D01*
X780980Y139278D01*
X780648Y138504D01*
X780298Y137739D01*
X779929Y136983D01*
X779541Y136236D01*
X779135Y135499D01*
X778712Y134771D01*
X778270Y134055D01*
X777811Y133349D01*
X777335Y132656D01*
X776842Y131973D01*
X776332Y131304D01*
X775807Y130647D01*
X775265Y130003D01*
X774707Y129372D01*
X774134Y128756D01*
X773547Y128153D01*
X772944Y127566D01*
X772328Y126993D01*
X771697Y126435D01*
X771053Y125893D01*
X770396Y125368D01*
X769727Y124858D01*
X769044Y124365D01*
X768351Y123889D01*
X767645Y123430D01*
X766929Y122988D01*
X766201Y122565D01*
X765464Y122159D01*
X764717Y121771D01*
X763961Y121402D01*
X763196Y121052D01*
X762422Y120720D01*
X761641Y120408D01*
X760852Y120114D01*
X760056Y119841D01*
X759254Y119587D01*
X758446Y119352D01*
X757632Y119138D01*
X756813Y118943D01*
X755990Y118769D01*
X755162Y118615D01*
X754331Y118481D01*
X753497Y118368D01*
X752661Y118275D01*
X751823Y118203D01*
X750983Y118151D01*
X750142Y118120D01*
X749300Y118110D01*
X748458Y118120D01*
X747617Y118151D01*
X746777Y118203D01*
X745939Y118275D01*
X745103Y118368D01*
X744269Y118481D01*
X743438Y118615D01*
X742610Y118769D01*
X741787Y118943D01*
X740968Y119138D01*
X740154Y119352D01*
X739346Y119587D01*
X738544Y119841D01*
X737748Y120114D01*
X736959Y120408D01*
X736178Y120720D01*
X735404Y121052D01*
X734639Y121402D01*
X733883Y121771D01*
X733136Y122159D01*
X732399Y122565D01*
X731671Y122988D01*
X730955Y123430D01*
X730249Y123889D01*
X729556Y124365D01*
X728873Y124858D01*
X728204Y125368D01*
X727547Y125893D01*
X726903Y126435D01*
X726272Y126993D01*
X725656Y127566D01*
X725053Y128153D01*
X724466Y128756D01*
X723893Y129372D01*
X723335Y130003D01*
X722793Y130647D01*
X722268Y131304D01*
X721758Y131973D01*
X721265Y132656D01*
X720789Y133349D01*
X720330Y134055D01*
X719888Y134771D01*
X719465Y135499D01*
X719059Y136236D01*
X718671Y136983D01*
X718302Y137739D01*
X717952Y138504D01*
X717620Y139278D01*
X717308Y140059D01*
X717014Y140848D01*
X716741Y141644D01*
X716487Y142446D01*
X716252Y143254D01*
X716038Y144068D01*
X715843Y144887D01*
X715669Y145710D01*
X715515Y146538D01*
X715381Y147369D01*
X715268Y148203D01*
X715175Y149039D01*
X715103Y149877D01*
X715051Y150717D01*
X715020Y151558D01*
X715010Y152400D01*
D16*
X732300Y152400D02*
X732305Y152817D01*
X732320Y153234D01*
X732346Y153651D01*
X732382Y154066D01*
X732428Y154481D01*
X732484Y154894D01*
X732550Y155306D01*
X732627Y155717D01*
X732713Y156125D01*
X732809Y156531D01*
X732916Y156934D01*
X733032Y157335D01*
X733158Y157733D01*
X733294Y158127D01*
X733439Y158518D01*
X733594Y158906D01*
X733758Y159289D01*
X733932Y159668D01*
X734115Y160043D01*
X734307Y160414D01*
X734509Y160779D01*
X734719Y161140D01*
X734937Y161495D01*
X735165Y161845D01*
X735401Y162189D01*
X735645Y162527D01*
X735898Y162859D01*
X736159Y163185D01*
X736427Y163504D01*
X736704Y163817D01*
X736988Y164122D01*
X737279Y164421D01*
X737578Y164712D01*
X737883Y164996D01*
X738196Y165273D01*
X738515Y165541D01*
X738841Y165802D01*
X739173Y166055D01*
X739511Y166299D01*
X739855Y166535D01*
X740205Y166763D01*
X740560Y166981D01*
X740921Y167191D01*
X741286Y167393D01*
X741657Y167585D01*
X742032Y167768D01*
X742411Y167942D01*
X742794Y168106D01*
X743182Y168261D01*
X743573Y168406D01*
X743967Y168542D01*
X744365Y168668D01*
X744766Y168784D01*
X745169Y168891D01*
X745575Y168987D01*
X745983Y169073D01*
X746394Y169150D01*
X746806Y169216D01*
X747219Y169272D01*
X747634Y169318D01*
X748049Y169354D01*
X748466Y169380D01*
X748883Y169395D01*
X749300Y169400D01*
X749717Y169395D01*
X750134Y169380D01*
X750551Y169354D01*
X750966Y169318D01*
X751381Y169272D01*
X751794Y169216D01*
X752206Y169150D01*
X752617Y169073D01*
X753025Y168987D01*
X753431Y168891D01*
X753834Y168784D01*
X754235Y168668D01*
X754633Y168542D01*
X755027Y168406D01*
X755418Y168261D01*
X755806Y168106D01*
X756189Y167942D01*
X756568Y167768D01*
X756943Y167585D01*
X757314Y167393D01*
X757679Y167191D01*
X758040Y166981D01*
X758395Y166763D01*
X758745Y166535D01*
X759089Y166299D01*
X759427Y166055D01*
X759759Y165802D01*
X760085Y165541D01*
X760404Y165273D01*
X760717Y164996D01*
X761022Y164712D01*
X761321Y164421D01*
X761612Y164122D01*
X761896Y163817D01*
X762173Y163504D01*
X762441Y163185D01*
X762702Y162859D01*
X762955Y162527D01*
X763199Y162189D01*
X763435Y161845D01*
X763663Y161495D01*
X763881Y161140D01*
X764091Y160779D01*
X764293Y160414D01*
X764485Y160043D01*
X764668Y159668D01*
X764842Y159289D01*
X765006Y158906D01*
X765161Y158518D01*
X765306Y158127D01*
X765442Y157733D01*
X765568Y157335D01*
X765684Y156934D01*
X765791Y156531D01*
X765887Y156125D01*
X765973Y155717D01*
X766050Y155306D01*
X766116Y154894D01*
X766172Y154481D01*
X766218Y154066D01*
X766254Y153651D01*
X766280Y153234D01*
X766295Y152817D01*
X766300Y152400D01*
X766295Y151983D01*
X766280Y151566D01*
X766254Y151149D01*
X766218Y150734D01*
X766172Y150319D01*
X766116Y149906D01*
X766050Y149494D01*
X765973Y149083D01*
X765887Y148675D01*
X765791Y148269D01*
X765684Y147866D01*
X765568Y147465D01*
X765442Y147067D01*
X765306Y146673D01*
X765161Y146282D01*
X765006Y145894D01*
X764842Y145511D01*
X764668Y145132D01*
X764485Y144757D01*
X764293Y144386D01*
X764091Y144021D01*
X763881Y143660D01*
X763663Y143305D01*
X763435Y142955D01*
X763199Y142611D01*
X762955Y142273D01*
X762702Y141941D01*
X762441Y141615D01*
X762173Y141296D01*
X761896Y140983D01*
X761612Y140678D01*
X761321Y140379D01*
X761022Y140088D01*
X760717Y139804D01*
X760404Y139527D01*
X760085Y139259D01*
X759759Y138998D01*
X759427Y138745D01*
X759089Y138501D01*
X758745Y138265D01*
X758395Y138037D01*
X758040Y137819D01*
X757679Y137609D01*
X757314Y137407D01*
X756943Y137215D01*
X756568Y137032D01*
X756189Y136858D01*
X755806Y136694D01*
X755418Y136539D01*
X755027Y136394D01*
X754633Y136258D01*
X754235Y136132D01*
X753834Y136016D01*
X753431Y135909D01*
X753025Y135813D01*
X752617Y135727D01*
X752206Y135650D01*
X751794Y135584D01*
X751381Y135528D01*
X750966Y135482D01*
X750551Y135446D01*
X750134Y135420D01*
X749717Y135405D01*
X749300Y135400D01*
X748883Y135405D01*
X748466Y135420D01*
X748049Y135446D01*
X747634Y135482D01*
X747219Y135528D01*
X746806Y135584D01*
X746394Y135650D01*
X745983Y135727D01*
X745575Y135813D01*
X745169Y135909D01*
X744766Y136016D01*
X744365Y136132D01*
X743967Y136258D01*
X743573Y136394D01*
X743182Y136539D01*
X742794Y136694D01*
X742411Y136858D01*
X742032Y137032D01*
X741657Y137215D01*
X741286Y137407D01*
X740921Y137609D01*
X740560Y137819D01*
X740205Y138037D01*
X739855Y138265D01*
X739511Y138501D01*
X739173Y138745D01*
X738841Y138998D01*
X738515Y139259D01*
X738196Y139527D01*
X737883Y139804D01*
X737578Y140088D01*
X737279Y140379D01*
X736988Y140678D01*
X736704Y140983D01*
X736427Y141296D01*
X736159Y141615D01*
X735898Y141941D01*
X735645Y142273D01*
X735401Y142611D01*
X735165Y142955D01*
X734937Y143305D01*
X734719Y143660D01*
X734509Y144021D01*
X734307Y144386D01*
X734115Y144757D01*
X733932Y145132D01*
X733758Y145511D01*
X733594Y145894D01*
X733439Y146282D01*
X733294Y146673D01*
X733158Y147067D01*
X733032Y147465D01*
X732916Y147866D01*
X732809Y148269D01*
X732713Y148675D01*
X732627Y149083D01*
X732550Y149494D01*
X732484Y149906D01*
X732428Y150319D01*
X732382Y150734D01*
X732346Y151149D01*
X732320Y151566D01*
X732305Y151983D01*
X732300Y152400D01*
D10*
X488950Y165100D02*
X476250Y165100D01*
X488950Y165100D02*
X495300Y158750D01*
X495300Y146050D01*
X488950Y139700D01*
X469900Y146050D02*
X469900Y158750D01*
X476250Y165100D01*
X469900Y146050D02*
X476250Y139700D01*
X488950Y139700D01*
D13*
X469773Y171323D02*
X469773Y182763D01*
X469773Y171323D02*
X475493Y171323D01*
X477400Y173230D01*
X477400Y180856D01*
X475493Y182763D01*
X469773Y182763D01*
X481467Y169416D02*
X489093Y169416D01*
X500787Y180856D02*
X498881Y182763D01*
X495068Y182763D01*
X493161Y180856D01*
X493161Y173230D01*
X495068Y171323D01*
X498881Y171323D01*
X500787Y173230D01*
X500787Y177043D01*
X496974Y177043D01*
X504855Y171323D02*
X504855Y182763D01*
X512481Y171323D01*
X512481Y182763D01*
X516549Y182763D02*
X516549Y171323D01*
X522269Y171323D01*
X524175Y173230D01*
X524175Y180856D01*
X522269Y182763D01*
X516549Y182763D01*
D10*
X463550Y419100D02*
X450850Y419100D01*
X463550Y419100D02*
X469900Y412750D01*
X469900Y400050D01*
X463550Y393700D01*
X444500Y400050D02*
X444500Y412750D01*
X450850Y419100D01*
X444500Y400050D02*
X450850Y393700D01*
X463550Y393700D01*
D13*
X452000Y434856D02*
X450093Y436763D01*
X446280Y436763D01*
X444373Y434856D01*
X444373Y432950D01*
X446280Y431043D01*
X450093Y431043D01*
X452000Y429136D01*
X452000Y427230D01*
X450093Y425323D01*
X446280Y425323D01*
X444373Y427230D01*
X456067Y423416D02*
X463693Y423416D01*
X475387Y434856D02*
X473481Y436763D01*
X469668Y436763D01*
X467761Y434856D01*
X467761Y427230D01*
X469668Y425323D01*
X473481Y425323D01*
X475387Y427230D01*
X475387Y431043D01*
X471574Y431043D01*
X479455Y425323D02*
X479455Y436763D01*
X487081Y425323D01*
X487081Y436763D01*
X491149Y436763D02*
X491149Y425323D01*
X496869Y425323D01*
X498775Y427230D01*
X498775Y434856D01*
X496869Y436763D01*
X491149Y436763D01*
D10*
X137160Y139700D02*
X137165Y140074D01*
X137178Y140448D01*
X137201Y140821D01*
X137233Y141194D01*
X137275Y141566D01*
X137325Y141936D01*
X137384Y142305D01*
X137453Y142673D01*
X137530Y143039D01*
X137617Y143403D01*
X137712Y143765D01*
X137816Y144124D01*
X137929Y144481D01*
X138051Y144834D01*
X138181Y145185D01*
X138320Y145532D01*
X138467Y145876D01*
X138623Y146216D01*
X138787Y146552D01*
X138960Y146884D01*
X139140Y147212D01*
X139328Y147535D01*
X139524Y147853D01*
X139728Y148167D01*
X139940Y148475D01*
X140159Y148778D01*
X140386Y149076D01*
X140619Y149368D01*
X140860Y149654D01*
X141108Y149935D01*
X141362Y150209D01*
X141624Y150476D01*
X141891Y150738D01*
X142165Y150992D01*
X142446Y151240D01*
X142732Y151481D01*
X143024Y151714D01*
X143322Y151941D01*
X143625Y152160D01*
X143933Y152372D01*
X144247Y152576D01*
X144565Y152772D01*
X144888Y152960D01*
X145216Y153140D01*
X145548Y153313D01*
X145884Y153477D01*
X146224Y153633D01*
X146568Y153780D01*
X146915Y153919D01*
X147266Y154049D01*
X147619Y154171D01*
X147976Y154284D01*
X148335Y154388D01*
X148697Y154483D01*
X149061Y154570D01*
X149427Y154647D01*
X149795Y154716D01*
X150164Y154775D01*
X150534Y154825D01*
X150906Y154867D01*
X151279Y154899D01*
X151652Y154922D01*
X152026Y154935D01*
X152400Y154940D01*
X152774Y154935D01*
X153148Y154922D01*
X153521Y154899D01*
X153894Y154867D01*
X154266Y154825D01*
X154636Y154775D01*
X155005Y154716D01*
X155373Y154647D01*
X155739Y154570D01*
X156103Y154483D01*
X156465Y154388D01*
X156824Y154284D01*
X157181Y154171D01*
X157534Y154049D01*
X157885Y153919D01*
X158232Y153780D01*
X158576Y153633D01*
X158916Y153477D01*
X159252Y153313D01*
X159584Y153140D01*
X159912Y152960D01*
X160235Y152772D01*
X160553Y152576D01*
X160867Y152372D01*
X161175Y152160D01*
X161478Y151941D01*
X161776Y151714D01*
X162068Y151481D01*
X162354Y151240D01*
X162635Y150992D01*
X162909Y150738D01*
X163176Y150476D01*
X163438Y150209D01*
X163692Y149935D01*
X163940Y149654D01*
X164181Y149368D01*
X164414Y149076D01*
X164641Y148778D01*
X164860Y148475D01*
X165072Y148167D01*
X165276Y147853D01*
X165472Y147535D01*
X165660Y147212D01*
X165840Y146884D01*
X166013Y146552D01*
X166177Y146216D01*
X166333Y145876D01*
X166480Y145532D01*
X166619Y145185D01*
X166749Y144834D01*
X166871Y144481D01*
X166984Y144124D01*
X167088Y143765D01*
X167183Y143403D01*
X167270Y143039D01*
X167347Y142673D01*
X167416Y142305D01*
X167475Y141936D01*
X167525Y141566D01*
X167567Y141194D01*
X167599Y140821D01*
X167622Y140448D01*
X167635Y140074D01*
X167640Y139700D01*
X167635Y139326D01*
X167622Y138952D01*
X167599Y138579D01*
X167567Y138206D01*
X167525Y137834D01*
X167475Y137464D01*
X167416Y137095D01*
X167347Y136727D01*
X167270Y136361D01*
X167183Y135997D01*
X167088Y135635D01*
X166984Y135276D01*
X166871Y134919D01*
X166749Y134566D01*
X166619Y134215D01*
X166480Y133868D01*
X166333Y133524D01*
X166177Y133184D01*
X166013Y132848D01*
X165840Y132516D01*
X165660Y132188D01*
X165472Y131865D01*
X165276Y131547D01*
X165072Y131233D01*
X164860Y130925D01*
X164641Y130622D01*
X164414Y130324D01*
X164181Y130032D01*
X163940Y129746D01*
X163692Y129465D01*
X163438Y129191D01*
X163176Y128924D01*
X162909Y128662D01*
X162635Y128408D01*
X162354Y128160D01*
X162068Y127919D01*
X161776Y127686D01*
X161478Y127459D01*
X161175Y127240D01*
X160867Y127028D01*
X160553Y126824D01*
X160235Y126628D01*
X159912Y126440D01*
X159584Y126260D01*
X159252Y126087D01*
X158916Y125923D01*
X158576Y125767D01*
X158232Y125620D01*
X157885Y125481D01*
X157534Y125351D01*
X157181Y125229D01*
X156824Y125116D01*
X156465Y125012D01*
X156103Y124917D01*
X155739Y124830D01*
X155373Y124753D01*
X155005Y124684D01*
X154636Y124625D01*
X154266Y124575D01*
X153894Y124533D01*
X153521Y124501D01*
X153148Y124478D01*
X152774Y124465D01*
X152400Y124460D01*
X152026Y124465D01*
X151652Y124478D01*
X151279Y124501D01*
X150906Y124533D01*
X150534Y124575D01*
X150164Y124625D01*
X149795Y124684D01*
X149427Y124753D01*
X149061Y124830D01*
X148697Y124917D01*
X148335Y125012D01*
X147976Y125116D01*
X147619Y125229D01*
X147266Y125351D01*
X146915Y125481D01*
X146568Y125620D01*
X146224Y125767D01*
X145884Y125923D01*
X145548Y126087D01*
X145216Y126260D01*
X144888Y126440D01*
X144565Y126628D01*
X144247Y126824D01*
X143933Y127028D01*
X143625Y127240D01*
X143322Y127459D01*
X143024Y127686D01*
X142732Y127919D01*
X142446Y128160D01*
X142165Y128408D01*
X141891Y128662D01*
X141624Y128924D01*
X141362Y129191D01*
X141108Y129465D01*
X140860Y129746D01*
X140619Y130032D01*
X140386Y130324D01*
X140159Y130622D01*
X139940Y130925D01*
X139728Y131233D01*
X139524Y131547D01*
X139328Y131865D01*
X139140Y132188D01*
X138960Y132516D01*
X138787Y132848D01*
X138623Y133184D01*
X138467Y133524D01*
X138320Y133868D01*
X138181Y134215D01*
X138051Y134566D01*
X137929Y134919D01*
X137816Y135276D01*
X137712Y135635D01*
X137617Y135997D01*
X137530Y136361D01*
X137453Y136727D01*
X137384Y137095D01*
X137325Y137464D01*
X137275Y137834D01*
X137233Y138206D01*
X137201Y138579D01*
X137178Y138952D01*
X137165Y139326D01*
X137160Y139700D01*
D13*
X114407Y128915D02*
X114407Y117475D01*
X114407Y128915D02*
X120127Y128915D01*
X122034Y127008D01*
X122034Y123195D01*
X120127Y121288D01*
X114407Y121288D01*
X118220Y121288D02*
X122034Y117475D01*
X126101Y128915D02*
X133728Y128915D01*
X133728Y127008D01*
X126101Y119382D01*
X126101Y117475D01*
D22*
X140081Y139700D03*
D10*
X735330Y381000D02*
X735330Y440690D01*
X735330Y381000D02*
X735021Y380996D01*
X734712Y380985D01*
X734403Y380966D01*
X734095Y380940D01*
X733787Y380906D01*
X733481Y380865D01*
X733175Y380816D01*
X732871Y380760D01*
X732569Y380696D01*
X732268Y380625D01*
X731968Y380547D01*
X731671Y380462D01*
X731376Y380369D01*
X731083Y380269D01*
X730793Y380162D01*
X730506Y380048D01*
X730221Y379927D01*
X729939Y379799D01*
X729661Y379665D01*
X729386Y379523D01*
X729114Y379375D01*
X728847Y379220D01*
X728583Y379059D01*
X728323Y378892D01*
X728067Y378718D01*
X727815Y378538D01*
X727568Y378352D01*
X727326Y378160D01*
X727088Y377962D01*
X726855Y377759D01*
X726627Y377549D01*
X726405Y377335D01*
X726187Y377115D01*
X725975Y376889D01*
X725769Y376659D01*
X725568Y376424D01*
X725373Y376184D01*
X725184Y375939D01*
X725001Y375690D01*
X724824Y375436D01*
X724654Y375178D01*
X724489Y374916D01*
X724331Y374650D01*
X724180Y374380D01*
X724035Y374107D01*
X723897Y373830D01*
X723766Y373550D01*
X723642Y373267D01*
X723524Y372981D01*
X723414Y372692D01*
X723310Y372401D01*
X723214Y372107D01*
X723125Y371811D01*
X723043Y371512D01*
X722968Y371212D01*
X722901Y370910D01*
X722841Y370607D01*
X722789Y370302D01*
X722744Y369996D01*
X722706Y369689D01*
X722676Y369381D01*
X722654Y369073D01*
X722638Y368764D01*
X722631Y368455D01*
X722631Y368145D01*
X722638Y367836D01*
X722654Y367527D01*
X722676Y367219D01*
X722706Y366911D01*
X722744Y366604D01*
X722789Y366298D01*
X722841Y365993D01*
X722901Y365690D01*
X722968Y365388D01*
X723043Y365088D01*
X723125Y364789D01*
X723214Y364493D01*
X723310Y364199D01*
X723414Y363908D01*
X723524Y363619D01*
X723642Y363333D01*
X723766Y363050D01*
X723897Y362770D01*
X724035Y362493D01*
X724180Y362220D01*
X724331Y361950D01*
X724489Y361684D01*
X724654Y361422D01*
X724824Y361164D01*
X725001Y360910D01*
X725184Y360661D01*
X725373Y360416D01*
X725568Y360176D01*
X725769Y359941D01*
X725975Y359711D01*
X726187Y359485D01*
X726405Y359265D01*
X726627Y359051D01*
X726855Y358841D01*
X727088Y358638D01*
X727326Y358440D01*
X727568Y358248D01*
X727815Y358062D01*
X728067Y357882D01*
X728323Y357708D01*
X728583Y357541D01*
X728847Y357380D01*
X729114Y357225D01*
X729386Y357077D01*
X729661Y356935D01*
X729939Y356801D01*
X730221Y356673D01*
X730506Y356552D01*
X730793Y356438D01*
X731083Y356331D01*
X731376Y356231D01*
X731671Y356138D01*
X731968Y356053D01*
X732268Y355975D01*
X732569Y355904D01*
X732871Y355840D01*
X733175Y355784D01*
X733481Y355735D01*
X733787Y355694D01*
X734095Y355660D01*
X734403Y355634D01*
X734712Y355615D01*
X735021Y355604D01*
X735330Y355600D01*
X483870Y295910D02*
X483870Y440690D01*
X735330Y355600D02*
X735330Y295910D01*
X483870Y295910D01*
X483870Y440690D02*
X735330Y440690D01*
D18*
X550496Y356108D02*
X546598Y360006D01*
X558292Y360006D01*
X558292Y356108D02*
X558292Y363904D01*
X556343Y367802D02*
X548547Y367802D01*
X546598Y369751D01*
X546598Y373649D01*
X548547Y375598D01*
X556343Y375598D01*
X558292Y373649D01*
X558292Y369751D01*
X556343Y367802D01*
X548547Y375598D01*
X548547Y379496D02*
X556343Y379496D01*
X548547Y379496D02*
X546598Y381445D01*
X546598Y385343D01*
X548547Y387292D01*
X556343Y387292D01*
X558292Y385343D01*
X558292Y381445D01*
X556343Y379496D01*
X548547Y387292D01*
D23*
X523508Y423291D02*
X523508Y431426D01*
X523508Y423291D02*
X527576Y423291D01*
X528932Y424647D01*
X528932Y430070D01*
X527576Y431426D01*
X523508Y431426D01*
X535762Y431426D02*
X537118Y430070D01*
X535762Y431426D02*
X533050Y431426D01*
X531694Y430070D01*
X531694Y424647D01*
X533050Y423291D01*
X535762Y423291D01*
X537118Y424647D01*
X539880Y427358D02*
X545303Y427358D01*
X548066Y423291D02*
X548066Y431426D01*
X548066Y423291D02*
X552133Y423291D01*
X553489Y424647D01*
X553489Y430070D01*
X552133Y431426D01*
X548066Y431426D01*
X560319Y431426D02*
X561675Y430070D01*
X560319Y431426D02*
X557607Y431426D01*
X556252Y430070D01*
X556252Y424647D01*
X557607Y423291D01*
X560319Y423291D01*
X561675Y424647D01*
X572623Y424647D02*
X572623Y431426D01*
X572623Y424647D02*
X573979Y423291D01*
X576691Y423291D01*
X578046Y424647D01*
X578046Y431426D01*
X584876Y431426D02*
X586232Y430070D01*
X584876Y431426D02*
X582165Y431426D01*
X580809Y430070D01*
X580809Y428714D01*
X582165Y427358D01*
X584876Y427358D01*
X586232Y426003D01*
X586232Y424647D01*
X584876Y423291D01*
X582165Y423291D01*
X580809Y424647D01*
X588995Y423291D02*
X588995Y431426D01*
X593062Y431426D01*
X594418Y430070D01*
X594418Y428714D01*
X593062Y427358D01*
X594418Y426003D01*
X594418Y424647D01*
X593062Y423291D01*
X588995Y423291D01*
X588995Y427358D02*
X593062Y427358D01*
X609434Y431426D02*
X610790Y430070D01*
X609434Y431426D02*
X606722Y431426D01*
X605366Y430070D01*
X605366Y428714D01*
X606722Y427358D01*
X609434Y427358D01*
X610790Y426003D01*
X610790Y424647D01*
X609434Y423291D01*
X606722Y423291D01*
X605366Y424647D01*
X614908Y424647D02*
X614908Y430070D01*
X614908Y424647D02*
X616264Y423291D01*
X616264Y428714D02*
X613552Y428714D01*
X620365Y423291D02*
X623077Y423291D01*
X620365Y423291D02*
X619009Y424647D01*
X619009Y427358D01*
X620365Y428714D01*
X623077Y428714D01*
X624433Y427358D01*
X624433Y426003D01*
X619009Y426003D01*
X627195Y428714D02*
X627195Y420579D01*
X627195Y428714D02*
X631263Y428714D01*
X632618Y427358D01*
X632618Y424647D01*
X631263Y423291D01*
X627195Y423291D01*
X523508Y418091D02*
X523508Y409956D01*
X527576Y409956D01*
X528932Y411312D01*
X528932Y416735D01*
X527576Y418091D01*
X523508Y418091D01*
X533050Y409956D02*
X535762Y409956D01*
X537118Y411312D01*
X537118Y414023D01*
X535762Y415379D01*
X533050Y415379D01*
X531694Y414023D01*
X531694Y411312D01*
X533050Y409956D01*
X539880Y411312D02*
X539880Y415379D01*
X539880Y411312D02*
X541236Y409956D01*
X542592Y411312D01*
X543948Y409956D01*
X545303Y411312D01*
X545303Y415379D01*
X548066Y415379D02*
X548066Y409956D01*
X548066Y415379D02*
X552133Y415379D01*
X553489Y414023D01*
X553489Y409956D01*
X564437Y409956D02*
X564437Y418091D01*
X568505Y418091D01*
X569861Y416735D01*
X569861Y415379D01*
X568505Y414023D01*
X569861Y412668D01*
X569861Y411312D01*
X568505Y409956D01*
X564437Y409956D01*
X564437Y414023D02*
X568505Y414023D01*
X572623Y415379D02*
X572623Y411312D01*
X573979Y409956D01*
X578046Y409956D01*
X578046Y415379D01*
X582165Y415379D02*
X586232Y415379D01*
X582165Y415379D02*
X580809Y414023D01*
X580809Y411312D01*
X582165Y409956D01*
X586232Y409956D01*
X588995Y409956D02*
X588995Y418091D01*
X588995Y412668D02*
X593062Y409956D01*
X588995Y412668D02*
X593062Y415379D01*
X523508Y404756D02*
X523508Y396621D01*
X523508Y404756D02*
X527576Y404756D01*
X528932Y403400D01*
X528932Y400688D01*
X527576Y399333D01*
X523508Y399333D01*
X533050Y396621D02*
X535762Y396621D01*
X537118Y397977D01*
X537118Y400688D01*
X535762Y402044D01*
X533050Y402044D01*
X531694Y400688D01*
X531694Y397977D01*
X533050Y396621D01*
X539880Y397977D02*
X539880Y402044D01*
X539880Y397977D02*
X541236Y396621D01*
X542592Y397977D01*
X543948Y396621D01*
X545303Y397977D01*
X545303Y402044D01*
X549422Y396621D02*
X552133Y396621D01*
X549422Y396621D02*
X548066Y397977D01*
X548066Y400688D01*
X549422Y402044D01*
X552133Y402044D01*
X553489Y400688D01*
X553489Y399333D01*
X548066Y399333D01*
X556252Y396621D02*
X556252Y402044D01*
X556252Y399333D02*
X558963Y402044D01*
X560319Y402044D01*
X575326Y404756D02*
X576682Y403400D01*
X575326Y404756D02*
X572615Y404756D01*
X571259Y403400D01*
X571259Y402044D01*
X572615Y400688D01*
X575326Y400688D01*
X576682Y399333D01*
X576682Y397977D01*
X575326Y396621D01*
X572615Y396621D01*
X571259Y397977D01*
X579445Y397977D02*
X579445Y402044D01*
X579445Y397977D02*
X580800Y396621D01*
X584868Y396621D01*
X584868Y402044D01*
X587630Y402044D02*
X587630Y393909D01*
X587630Y402044D02*
X591698Y402044D01*
X593054Y400688D01*
X593054Y397977D01*
X591698Y396621D01*
X587630Y396621D01*
X595816Y393909D02*
X595816Y402044D01*
X599884Y402044D01*
X601239Y400688D01*
X601239Y397977D01*
X599884Y396621D01*
X595816Y396621D01*
X604002Y404756D02*
X605358Y404756D01*
X605358Y396621D01*
X604002Y396621D02*
X606714Y396621D01*
X609459Y397977D02*
X609459Y402044D01*
X609459Y397977D02*
X610815Y396621D01*
X614882Y396621D01*
X614882Y395265D02*
X614882Y402044D01*
X614882Y395265D02*
X613527Y393909D01*
X612171Y393909D01*
D18*
X445008Y329702D02*
X445008Y319957D01*
X446957Y318008D01*
X450855Y318008D01*
X452804Y319957D01*
X452804Y329702D01*
X456702Y319957D02*
X458651Y318008D01*
X462549Y318008D01*
X464498Y319957D01*
X464498Y321906D01*
X462549Y323855D01*
X458651Y323855D01*
X456702Y325804D01*
X456702Y327753D01*
X458651Y329702D01*
X462549Y329702D01*
X464498Y327753D01*
X460600Y331651D02*
X460600Y316059D01*
X468396Y329702D02*
X476192Y329702D01*
X476192Y327753D01*
X468396Y319957D01*
X468396Y318008D01*
D13*
X203200Y190500D02*
X196850Y196850D01*
X203200Y190500D02*
X203200Y177800D01*
X196850Y171450D01*
X203200Y165100D01*
X203200Y152400D01*
X196850Y146050D01*
X203200Y139700D01*
X203200Y127000D01*
X196850Y120650D01*
X203200Y114300D01*
X203200Y101600D01*
X196850Y95250D01*
X177800Y190500D02*
X184150Y196850D01*
X177800Y177800D02*
X184150Y171450D01*
X177800Y165100D01*
X177800Y152400D02*
X184150Y146050D01*
X177800Y139700D01*
X177800Y127000D02*
X184150Y120650D01*
X177800Y114300D01*
X177800Y101600D02*
X184150Y95250D01*
X177800Y336550D02*
X226060Y336550D01*
X383540Y336550D02*
X431800Y336550D01*
X431800Y266700D01*
X431800Y254000D01*
X431800Y241300D01*
X431800Y228600D01*
X431800Y215900D01*
X431800Y203200D01*
X431800Y-6350D01*
X177800Y203200D02*
X177800Y215900D01*
X177800Y228600D01*
X177800Y241300D01*
X177800Y254000D01*
X177800Y266700D01*
X177800Y336550D01*
X184150Y95250D02*
X177800Y88900D01*
X177800Y76200D02*
X184150Y69850D01*
X196850Y69850D01*
X203200Y76200D01*
X203200Y88900D01*
X196850Y95250D01*
D18*
X208788Y86453D02*
X210737Y88402D01*
X214635Y88402D01*
X216584Y86453D01*
X216584Y84504D01*
X214635Y82555D01*
X212686Y82555D01*
X214635Y82555D02*
X216584Y80606D01*
X216584Y78657D01*
X214635Y76708D01*
X210737Y76708D01*
X208788Y78657D01*
X220482Y80606D02*
X220482Y88402D01*
X220482Y80606D02*
X224380Y76708D01*
X228278Y80606D01*
X228278Y88402D01*
X232176Y86453D02*
X234125Y88402D01*
X238023Y88402D01*
X239972Y86453D01*
X239972Y84504D01*
X238023Y82555D01*
X236074Y82555D01*
X238023Y82555D02*
X239972Y80606D01*
X239972Y78657D01*
X238023Y76708D01*
X234125Y76708D01*
X232176Y78657D01*
X220472Y248397D02*
X208778Y248397D01*
X208778Y254244D01*
X210727Y256193D01*
X214625Y256193D01*
X216574Y254244D01*
X216574Y248397D01*
X216574Y252295D02*
X220472Y256193D01*
X210727Y267887D02*
X208778Y265938D01*
X208778Y262040D01*
X210727Y260091D01*
X212676Y260091D01*
X214625Y262040D01*
X214625Y265938D01*
X216574Y267887D01*
X218523Y267887D01*
X220472Y265938D01*
X220472Y262040D01*
X218523Y260091D01*
X220472Y275683D02*
X208778Y275683D01*
X208778Y271785D02*
X208778Y279581D01*
D13*
X425450Y196850D02*
X431800Y190500D01*
X431800Y177800D02*
X425450Y171450D01*
X431800Y165100D01*
X431800Y152400D02*
X425450Y146050D01*
X431800Y139700D01*
X431800Y127000D02*
X425450Y120650D01*
X431800Y114300D01*
X431800Y101600D02*
X425450Y95250D01*
X406400Y190500D02*
X412750Y196850D01*
X406400Y177800D02*
X412750Y171450D01*
X406400Y165100D01*
X406400Y152400D02*
X412750Y146050D01*
X406400Y139700D01*
X406400Y127000D02*
X412750Y120650D01*
X406400Y114300D01*
X406400Y101600D02*
X412750Y95250D01*
X406400Y88900D01*
X406400Y76200D02*
X412750Y69850D01*
X425450Y69850D01*
X431800Y76200D01*
X431800Y88900D02*
X425450Y95250D01*
D18*
X386236Y88402D02*
X378440Y88402D01*
X378440Y82555D01*
X382338Y84504D01*
X384287Y84504D01*
X386236Y82555D01*
X386236Y78657D01*
X384287Y76708D01*
X380389Y76708D01*
X378440Y78657D01*
X390134Y80606D02*
X390134Y88402D01*
X390134Y80606D02*
X394032Y76708D01*
X397930Y80606D01*
X397930Y88402D01*
D13*
X184150Y196850D02*
X177800Y203200D01*
X177800Y215900D02*
X184150Y222250D01*
X177800Y228600D01*
X177800Y241300D02*
X184150Y247650D01*
X177800Y254000D01*
X177800Y266700D02*
X184150Y273050D01*
X196850Y273050D01*
X203200Y266700D01*
X203200Y254000D01*
X196850Y247650D01*
X203200Y241300D01*
X203200Y228600D01*
X196850Y222250D01*
X203200Y215900D01*
X203200Y203200D01*
X196850Y196850D01*
X406400Y88900D02*
X406400Y76200D01*
X406400Y101600D02*
X406400Y114300D01*
X406400Y127000D02*
X406400Y139700D01*
X406400Y152400D02*
X406400Y165100D01*
X406400Y177800D02*
X406400Y190500D01*
X412750Y196850D02*
X406400Y203200D01*
X406400Y215900D01*
X412750Y222250D01*
X406400Y228600D01*
X406400Y241300D01*
X412750Y247650D01*
X406400Y254000D01*
X406400Y266700D01*
X412750Y273050D01*
X425450Y273050D01*
X431800Y266700D01*
X431800Y254000D02*
X425450Y247650D01*
X431800Y241300D01*
X431800Y228600D02*
X425450Y222250D01*
X431800Y215900D01*
X431800Y203200D02*
X425450Y196850D01*
X177800Y203200D02*
X177800Y63500D01*
X196850Y63500D01*
X196850Y44450D01*
X196850Y19050D01*
X196850Y-6350D01*
X196850Y44450D02*
X184150Y44450D01*
X184150Y19050D01*
X196850Y19050D01*
X196850Y-6350D02*
X254000Y-6350D01*
X254000Y8890D01*
X342900Y8890D02*
X342900Y-6350D01*
X431800Y-6350D01*
X336550Y0D02*
X260350Y0D01*
X336550Y0D02*
X336550Y8890D01*
X260350Y8890D02*
X260350Y0D01*
X260350Y8890D02*
X254000Y8890D01*
X336550Y8890D02*
X342900Y8890D01*
D18*
X281417Y27857D02*
X281417Y37602D01*
X281417Y27857D02*
X283366Y25908D01*
X287264Y25908D01*
X289213Y27857D01*
X289213Y37602D01*
X298958Y37602D02*
X300907Y35653D01*
X298958Y37602D02*
X295060Y37602D01*
X293111Y35653D01*
X293111Y33704D01*
X295060Y31755D01*
X298958Y31755D01*
X300907Y29806D01*
X300907Y27857D01*
X298958Y25908D01*
X295060Y25908D01*
X293111Y27857D01*
X304805Y25908D02*
X304805Y37602D01*
X310652Y37602D01*
X312601Y35653D01*
X312601Y33704D01*
X310652Y31755D01*
X312601Y29806D01*
X312601Y27857D01*
X310652Y25908D01*
X304805Y25908D01*
X304805Y31755D02*
X310652Y31755D01*
D23*
X203581Y27051D02*
X203581Y36457D01*
X208284Y36457D01*
X209852Y34889D01*
X209852Y31754D01*
X208284Y30186D01*
X203581Y30186D01*
X206716Y30186D02*
X209852Y27051D01*
X212936Y36457D02*
X219207Y36457D01*
X212936Y36457D02*
X212936Y27051D01*
X219207Y27051D01*
X216072Y31754D02*
X212936Y31754D01*
X226994Y36457D02*
X228562Y34889D01*
X226994Y36457D02*
X223859Y36457D01*
X222291Y34889D01*
X222291Y33322D01*
X223859Y31754D01*
X226994Y31754D01*
X228562Y30186D01*
X228562Y28619D01*
X226994Y27051D01*
X223859Y27051D01*
X222291Y28619D01*
X231647Y36457D02*
X237917Y36457D01*
X231647Y36457D02*
X231647Y27051D01*
X237917Y27051D01*
X234782Y31754D02*
X231647Y31754D01*
X244137Y27051D02*
X244137Y36457D01*
X241002Y36457D02*
X247272Y36457D01*
D10*
X253719Y156972D02*
X253719Y173242D01*
X253719Y156972D02*
X261854Y156972D01*
X264565Y159684D01*
X264565Y170530D01*
X261854Y173242D01*
X253719Y173242D01*
X270090Y167819D02*
X275513Y173242D01*
X275513Y156972D01*
X270090Y156972D02*
X280937Y156972D01*
X302833Y156972D02*
X302833Y167819D01*
X305545Y167819D01*
X308257Y165107D01*
X308257Y156972D01*
X308257Y165107D02*
X310968Y167819D01*
X313680Y165107D01*
X313680Y156972D01*
X319205Y167819D02*
X321917Y167819D01*
X321917Y156972D01*
X324628Y156972D02*
X319205Y156972D01*
X321917Y173242D02*
X321917Y175954D01*
X330119Y167819D02*
X330119Y156972D01*
X330119Y167819D02*
X338254Y167819D01*
X340966Y165107D01*
X340966Y156972D01*
X346491Y167819D02*
X349202Y167819D01*
X349202Y156972D01*
X346491Y156972D02*
X351914Y156972D01*
X349202Y173242D02*
X349202Y175954D01*
D13*
X260350Y63500D02*
X260350Y57150D01*
X260350Y50800D02*
X260350Y44450D01*
X260350Y38100D02*
X260350Y31750D01*
X260350Y25400D02*
X260350Y19050D01*
X260350Y12700D02*
X260350Y8890D01*
X260350Y63500D02*
X266700Y63500D01*
X273050Y63500D02*
X279400Y63500D01*
X285750Y63500D02*
X292100Y63500D01*
X298450Y63500D02*
X304800Y63500D01*
X311150Y63500D02*
X317500Y63500D01*
X323850Y63500D02*
X330200Y63500D01*
X336550Y63500D02*
X336550Y57150D01*
X336550Y50800D02*
X336550Y44450D01*
X336550Y38100D02*
X336550Y31750D01*
X336550Y25400D02*
X336550Y19050D01*
X336550Y12700D02*
X336550Y8890D01*
X226060Y279400D02*
X226060Y336550D01*
X383540Y336550D02*
X383540Y279400D01*
X383540Y339090D02*
X226060Y339090D01*
X383540Y339090D02*
X383540Y336550D01*
X226060Y336550D02*
X226060Y339090D01*
X226060Y279400D02*
X383540Y279400D01*
X256320Y301625D02*
X256320Y310946D01*
X260981Y315607D01*
X265642Y310946D01*
X265642Y301625D01*
X265642Y308616D02*
X256320Y308616D01*
X270353Y301625D02*
X270353Y315607D01*
X279674Y301625D01*
X279674Y315607D01*
X289046Y315607D02*
X289046Y301625D01*
X284386Y315607D02*
X293707Y315607D01*
X298419Y315607D02*
X307740Y315607D01*
X298419Y315607D02*
X298419Y301625D01*
X307740Y301625D01*
X303079Y308616D02*
X298419Y308616D01*
X312451Y301625D02*
X312451Y315607D01*
X321773Y301625D01*
X321773Y315607D01*
X326484Y315607D02*
X326484Y301625D01*
X335805Y301625D02*
X326484Y315607D01*
X335805Y315607D02*
X335805Y301625D01*
X340517Y301625D02*
X340517Y310946D01*
X345178Y315607D01*
X349838Y310946D01*
X349838Y301625D01*
X349838Y308616D02*
X340517Y308616D01*
D18*
X220472Y223764D02*
X212676Y223764D01*
X208778Y227662D01*
X212676Y231560D01*
X220472Y231560D01*
X214625Y231560D02*
X214625Y223764D01*
X218523Y235458D02*
X210727Y235458D01*
X208778Y237407D01*
X208778Y241305D01*
X210727Y243254D01*
X218523Y243254D01*
X220472Y241305D01*
X220472Y237407D01*
X218523Y235458D01*
X210727Y243254D01*
D13*
X226060Y279400D02*
X226060Y101600D01*
D18*
X220472Y198364D02*
X208778Y198364D01*
X220472Y198364D02*
X220472Y204211D01*
X218523Y206160D01*
X210727Y206160D01*
X208778Y204211D01*
X208778Y198364D01*
X210727Y210058D02*
X218523Y210058D01*
X210727Y210058D02*
X208778Y212007D01*
X208778Y215905D01*
X210727Y217854D01*
X218523Y217854D01*
X220472Y215905D01*
X220472Y212007D01*
X218523Y210058D01*
X210727Y217854D01*
X208778Y172964D02*
X220472Y172964D01*
X220472Y178811D01*
X218523Y180760D01*
X210727Y180760D01*
X208778Y178811D01*
X208778Y172964D01*
X208778Y184658D02*
X208778Y192454D01*
X208778Y184658D02*
X214625Y184658D01*
X212676Y188556D01*
X212676Y190505D01*
X214625Y192454D01*
X218523Y192454D01*
X220472Y190505D01*
X220472Y186607D01*
X218523Y184658D01*
X220472Y147564D02*
X208778Y147564D01*
X220472Y147564D02*
X220472Y153411D01*
X218523Y155360D01*
X210727Y155360D01*
X208778Y153411D01*
X208778Y147564D01*
X210727Y163156D02*
X208778Y167054D01*
X210727Y163156D02*
X214625Y159258D01*
X218523Y159258D01*
X220472Y161207D01*
X220472Y165105D01*
X218523Y167054D01*
X216574Y167054D01*
X214625Y165105D01*
X214625Y159258D01*
X208778Y122164D02*
X220472Y122164D01*
X220472Y128011D01*
X218523Y129960D01*
X210727Y129960D01*
X208778Y128011D01*
X208778Y122164D01*
X208778Y133858D02*
X208778Y141654D01*
X210727Y141654D01*
X218523Y133858D01*
X220472Y133858D01*
X220472Y96764D02*
X208778Y96764D01*
X220472Y96764D02*
X220472Y102611D01*
X218523Y104560D01*
X210727Y104560D01*
X208778Y102611D01*
X208778Y96764D01*
X210727Y108458D02*
X208778Y110407D01*
X208778Y114305D01*
X210727Y116254D01*
X212676Y116254D01*
X214625Y114305D01*
X216574Y116254D01*
X218523Y116254D01*
X220472Y114305D01*
X220472Y110407D01*
X218523Y108458D01*
X216574Y108458D01*
X214625Y110407D01*
X212676Y108458D01*
X210727Y108458D01*
X214625Y110407D02*
X214625Y114305D01*
X389118Y253062D02*
X400812Y253062D01*
X389118Y249164D02*
X389118Y256960D01*
X389118Y260858D02*
X400812Y268654D01*
X400812Y260858D02*
X389118Y268654D01*
X389118Y223764D02*
X400812Y223764D01*
X389118Y223764D02*
X389118Y229611D01*
X391067Y231560D01*
X394965Y231560D01*
X396914Y229611D01*
X396914Y223764D01*
X396914Y227662D02*
X400812Y231560D01*
X400812Y243254D02*
X389118Y235458D01*
X389118Y243254D02*
X400812Y235458D01*
D13*
X383540Y279400D02*
X383540Y119380D01*
D18*
X389118Y198364D02*
X400812Y198364D01*
X400812Y204211D01*
X398863Y206160D01*
X391067Y206160D01*
X389118Y204211D01*
X389118Y198364D01*
X393016Y210058D02*
X389118Y213956D01*
X400812Y213956D01*
X400812Y210058D02*
X400812Y217854D01*
X400812Y172964D02*
X389118Y172964D01*
X400812Y172964D02*
X400812Y178811D01*
X398863Y180760D01*
X391067Y180760D01*
X389118Y178811D01*
X389118Y172964D01*
X400812Y184658D02*
X400812Y192454D01*
X400812Y184658D02*
X393016Y192454D01*
X391067Y192454D01*
X389118Y190505D01*
X389118Y186607D01*
X391067Y184658D01*
X389118Y147564D02*
X400812Y147564D01*
X400812Y153411D01*
X398863Y155360D01*
X391067Y155360D01*
X389118Y153411D01*
X389118Y147564D01*
X391067Y159258D02*
X389118Y161207D01*
X389118Y165105D01*
X391067Y167054D01*
X393016Y167054D01*
X394965Y165105D01*
X394965Y163156D01*
X394965Y165105D02*
X396914Y167054D01*
X398863Y167054D01*
X400812Y165105D01*
X400812Y161207D01*
X398863Y159258D01*
X400812Y122164D02*
X389118Y122164D01*
X400812Y122164D02*
X400812Y128011D01*
X398863Y129960D01*
X391067Y129960D01*
X389118Y128011D01*
X389118Y122164D01*
X389118Y139705D02*
X400812Y139705D01*
X394965Y133858D02*
X389118Y139705D01*
X394965Y141654D02*
X394965Y133858D01*
D13*
X363220Y101600D02*
X226060Y101600D01*
D18*
X372593Y113802D02*
X374542Y111853D01*
X372593Y113802D02*
X368695Y113802D01*
X366746Y111853D01*
X366746Y104057D01*
X368695Y102108D01*
X372593Y102108D01*
X374542Y104057D01*
X374542Y107955D01*
X370644Y107955D01*
X378440Y102108D02*
X378440Y113802D01*
X386236Y102108D01*
X386236Y113802D01*
X390134Y113802D02*
X390134Y102108D01*
X395981Y102108D01*
X397930Y104057D01*
X397930Y111853D01*
X395981Y113802D01*
X390134Y113802D01*
D13*
X470500Y10600D02*
X490500Y10600D01*
X525500Y10600D01*
X545500Y10600D01*
X545500Y88100D01*
X470500Y88100D02*
X470500Y10600D01*
X490500Y10600D02*
X490500Y15600D01*
X525500Y15600D01*
X525500Y10600D01*
X473000Y88100D02*
X470500Y88100D01*
X473000Y88100D02*
X473000Y50600D01*
X543000Y88100D02*
X545500Y88100D01*
X543000Y88100D02*
X543000Y50600D01*
X473000Y50600D01*
X495300Y12700D02*
X495300Y-88900D01*
X520700Y-88900D01*
X520700Y12700D01*
M02*
